<?xml version="1.0" standalone="no"?>
<!DOCTYPE svg PUBLIC "-//W3C//DTD SVG 1.1//EN" "http://www.w3.org/Graphics/SVG/1.1/DTD/svg11.dtd" >
<svg xmlns="http://www.w3.org/2000/svg" xmlns:xlink="http://www.w3.org/1999/xlink" version="1.1">
<metadata></metadata>
<defs>
<font id="europeextnormal" horiz-adv-x="1511" >
<font-face units-per-em="2048" ascent="1638" descent="-410" />
<missing-glyph horiz-adv-x="651" />
<glyph horiz-adv-x="0" />
<glyph unicode="&#xd;" horiz-adv-x="0" />
<glyph unicode=" "  horiz-adv-x="651" />
<glyph unicode="&#x09;" horiz-adv-x="651" />
<glyph unicode="&#xa0;" horiz-adv-x="651" />
<glyph unicode="!" horiz-adv-x="401" d="M127 0v160h147v-160h-147zM127 344v1078h147v-1078h-147z" />
<glyph unicode="&#x22;" horiz-adv-x="692" d="M148 1450h114l-20 -352h-70zM422 1450h114l-24 -352h-66z" />
<glyph unicode="#" horiz-adv-x="1310" d="M58 639l24 115h282l62 254h-278l32 114h274l66 266h115l-70 -266h303l70 266h110l-65 -266h267l-30 -114h-270l-61 -254h266l-29 -115h-266l-70 -279h-110l70 279h-304l-69 -271h-111l70 271h-278zM475 754h303l66 254h-308z" />
<glyph unicode="$" horiz-adv-x="1847" d="M90 1020q0 122 48.5 215t146.5 144q97 51 239 51h320v126h147v-126h263q130 0 222 -24t151 -73t86.5 -123t27.5 -178h-147q-2 85 -33 140.5t-106 84.5t-208 29h-256v-488h309q128 0 214 -22t139 -68.5t76.5 -119t23.5 -178.5q0 -118 -37 -209t-133.5 -146t-265.5 -55 h-326v-184h-147v184h-314q-202 0 -315 98q-113 100 -113 300h148q3 -125 66.5 -189.5t203.5 -64.5h324v512h-328q-156 0 -251 44t-135 125t-40 195zM250 1020q0 -222 240 -222h354v488h-354q-77 0 -130.5 -25t-81.5 -83.5t-28 -157.5zM991 144h336q148 0 207.5 68t59.5 198 q0 94 -19 145t-76 76t-172 25h-336v-512z" />
<glyph unicode="%" horiz-adv-x="2355" d="M98 848v262q0 118 29 185t97 97t190 30h332q108 0 176 -29t101.5 -98t33.5 -185v-262q0 -111 -30.5 -174.5t-98.5 -91.5q-66 -29 -182 -33q-114 -9 -168 -9q-50 0 -164 9q-117 4 -185.5 32.5t-99.5 92t-31 174.5zM226 860q0 -104 44 -146q44 -40 160 -46h301 q74 3 117.5 21t62.5 58.5t19 112.5v238q0 114 -41.5 155t-155.5 41h-303q-84 0 -127 -16.5t-60 -58t-17 -121.5v-238zM918 -70l418 1561h122l-422 -1561h-118zM1315 303v258q0 89 16.5 148.5t53.5 97t97 53.5t152 16h332q106 0 173 -30t101 -99.5t34 -185.5v-258 q0 -111 -30 -175.5t-97 -94t-181 -33.5h-332q-119 4 -188 34t-100 94t-31 175zM1446 316q0 -108 44 -150.5t154 -42.5h308q75 0 117.5 17.5t61.5 59.5t19 116v237q0 77 -17 119t-59.5 60t-119.5 18h-308q-120 0 -160 -40t-40 -157v-237z" />
<glyph unicode="&#x26;" horiz-adv-x="2023" d="M102 492q0 163 69 250.5t139 113.5t104 28q0 -2 -18 16.5t-33 58t-15 110.5q0 125 64.5 204t175.5 114t256 35h430q160 0 260 -49t147 -117t61.5 -130t14.5 -106v-8h-151q-6 262 -332 262h-450q-158 0 -241 -58t-83 -164q0 -82 38 -117t64 -42l1016 -607q40 38 101 126 t63 190h147q0 -148 -67.5 -254t-112.5 -148l139 -81l-90 -135l-172 106q-4 -3 -23 -16.5t-60 -31t-107 -30t-158 -12.5h-676q-219 0 -360 124q-140 126 -140 368zM250 492q0 -162 82 -253q84 -91 250 -91h712q66 0 112 15t64 25l-938 570q-70 0 -176 -50t-106 -216z" />
<glyph unicode="'" horiz-adv-x="426" d="M148 1450h114l-20 -352h-70z" />
<glyph unicode="(" horiz-adv-x="647" d="M70 274v758q0 163 65 278t183.5 175.5t271.5 66.5v-160q-186 -9 -273 -95.5t-87 -264.5v-762q0 -140 38 -216t114 -106t208 -34v-160q-170 6 -285.5 59t-175 166t-59.5 295z" />
<glyph unicode=")" horiz-adv-x="647" d="M58 -86q130 4 206 34t113 106t37 216v762q0 120 -38 197t-117 117t-201 46v160q151 -6 268 -66.5t182.5 -175.5t65.5 -278v-758q0 -270 -129 -390t-387 -130v160z" />
<glyph unicode="*" horiz-adv-x="712" d="M78 996q0 24 20 46q22 22 62 31q43 12 84.5 23.5t63.5 17.5t32 8l-58 13q-58 13 -122 24q-38 6 -60 27.5t-22 46.5q0 26 21 49.5t49 23.5q37 0 73 -36q48 -51 81 -83q32 -33 50 -49q-2 0 -57 177q0 8 -4.5 18.5t-4.5 14.5q0 34 24 58t50 24t48 -21t22 -57q0 -24 -4 -37 q-7 -22 -17.5 -57.5t-21.5 -72.5t-15 -47q-4 0 120 140q32 32 69 32q28 0 51 -22t23 -47q0 -57 -78 -73q-47 -10 -99.5 -25t-72.5 -21q-31 0 180 -36q38 -6 56 -30t18 -52q0 -29 -19 -52q-18 -22 -46 -22q-32 0 -74 41q-41 47 -76 83l-52 52q5 -22 18.5 -69t35.5 -111 q0 -6 2 -20t2 -17q0 -36 -22 -59t-52 -23q-27 0 -48.5 21.5t-21.5 55.5q0 16 9 42q18 66 33.5 110t23.5 66q4 0 -126 -140q-34 -40 -74 -40q-29 0 -52 24q-22 24 -22 50z" />
<glyph unicode="+" horiz-adv-x="958" d="M110 532v136h296v294h134v-294h300v-136h-300v-298h-134v298h-296z" />
<glyph unicode="," horiz-adv-x="381" d="M123 -4v160h159v-266q0 -74 -56 -111h-78q58 45 57 111v106h-82z" />
<glyph unicode="-" horiz-adv-x="889" d="M110 520v152h652v-152h-652z" />
<glyph unicode="." horiz-adv-x="381" d="M123 0v160h159v-160h-159z" />
<glyph unicode="/" horiz-adv-x="647" d="M16 -184l455 1675h160l-455 -1675h-160z" />
<glyph unicode="0" horiz-adv-x="1777" d="M86 700q0 28 2 100t2 118q2 158 28 255t85 152t156 78t255 27h558q183 -2 291.5 -45.5t164.5 -154t60 -312.5v-430q-4 -202 -54.5 -306.5t-157 -142t-304.5 -39.5h-558q-152 2 -248 22t-156 71t-89 146t-31 249q0 46 -2 116q-2 68 -2 96zM234 700q0 -28 2 -97t2 -115 q2 -158 36.5 -230.5t108.5 -93.5q73 -20 229 -20h558q148 0 222 21t110 93t38 230v430q0 145 -34.5 223.5t-114 111.5t-221.5 33h-558q-155 0 -231.5 -26.5t-108.5 -103.5q-32 -76 -34 -238q0 -46 -2 -118t-2 -100z" />
<glyph unicode="1" horiz-adv-x="1777" d="M426 996l422 426h225v-1422h-159v1274l-386 -377z" />
<glyph unicode="2" horiz-adv-x="1777" d="M110 0v266q0 193 129 297.5t396 104.5h512q142 0 220 26t111.5 87t33.5 169q0 128 -30 200t-109.5 104t-227.5 32h-512q-198 0 -272.5 -62t-78.5 -192h-159q0 136 56 224.5t169.5 131t286.5 42.5h512q153 0 251 -24.5t155 -78.5t81.5 -144.5t24.5 -232.5 q0 -156 -42.5 -247t-154 -135t-317.5 -44h-512q-375 0 -375 -258v-122h1401v-144h-1549z" />
<glyph unicode="3" horiz-adv-x="1777" d="M144 1020q0 65 32 155t140 168.5t315 78.5h516q220 0 357.5 -77t137.5 -276q0 -104 -28 -170.5t-65 -99t-69 -44t-38 -13.5q10 -3 39.5 -11.5t67 -38.5t65.5 -97t28 -177q0 -160 -63.5 -252.5t-173 -129t-258.5 -36.5h-514q-250 0 -367.5 98t-117.5 304h147 q10 -258 338 -258h547q116 0 184 25t99.5 84.5t31.5 164.5q0 110 -33 163t-97.5 68t-184.5 15h-440v143h440q108 0 176 19.5t104 71.5q35 50 35 146q0 72 -35 125t-106.5 81t-175.5 28h-547q-156 0 -243 -67t-93 -199h-147q-4 0 -4 8z" />
<glyph unicode="4" horiz-adv-x="1777" d="M135 307v147l1175 968h160v-972h191v-143h-191v-307h-147v307h-1188zM350 450h973v804z" />
<glyph unicode="5" horiz-adv-x="1777" d="M102 402h148q2 -66 21.5 -115t62 -81.5t112.5 -49t172 -16.5h506q148 0 231.5 34t118 103.5t34.5 181.5q0 108 -38 179t-122 106.5t-224 35.5h-626q-101 0 -149.5 -26t-74.5 -98h-147v766h1493v-144h-1346v-461q24 39 79 73t129 34h642q187 0 304.5 -49t172 -151 t54.5 -265q0 -124 -31 -211.5t-95.5 -143.5t-163.5 -82t-239 -26h-508q-516 0 -516 406z" />
<glyph unicode="6" horiz-adv-x="1777" d="M119 389v631q0 104 29 180.5t90.5 127t158.5 77.5t238 33h508q263 -9 389.5 -106t126.5 -300h-147q-5 85 -39 140t-113.5 86.5t-214.5 35.5h-512q-138 -5 -218.5 -35.5t-114.5 -88.5t-34 -150v-330q92 144 352 144h17h508q189 0 305 -40t168.5 -121t52.5 -210v-61 q-2 -144 -55.5 -237t-171.5 -139t-308 -46h-493q-272 0 -397 104t-125 305zM266 424q0 -89 26 -154t107 -106t234 -41h512q210 0 292.5 61.5t82.5 175.5v52q-2 92 -31 150.5t-110.5 93t-235.5 34.5h-502h2q-162 0 -242.5 -31.5t-106.5 -87t-28 -147.5z" />
<glyph unicode="7" horiz-adv-x="1777" d="M45 1280v142h1694v-136l-1280 -1284h-207l1290 1278h-1497z" />
<glyph unicode="8" horiz-adv-x="1777" d="M127 389q0 138 61.5 213.5t123.5 99.5q64 24 94 27q-8 0 -47 5.5t-86.5 30.5t-82 87t-34.5 168q0 145 48.5 236.5t155.5 136.5t283 45h525q179 0 286.5 -44.5t154 -136t46.5 -237.5q0 -105 -34.5 -167.5t-80.5 -87.5t-85 -30t-46 -6q17 -2 55.5 -13t90.5 -45.5t90.5 -104 t38.5 -177.5q0 -409 -516 -409h-525q-176 0 -291.5 45t-170 135.5t-54.5 228.5zM286 393q0 -85 33 -144t111 -92.5t213 -33.5h523q206 0 286 69.5t80 200.5q0 94 -29.5 151t-109.5 86q-79 30 -227 30h-523q-205 0 -281 -68.5t-76 -198.5zM316 1030q0 -81 24.5 -127.5 t95 -70.5t207.5 -29h523q142 6 213 28.5t97.5 69.5t26.5 131q0 134 -77.5 198t-259.5 64h-523q-194 0 -260.5 -66t-66.5 -198z" />
<glyph unicode="9" horiz-adv-x="1777" d="M119 954v62q2 108 32 186.5t92.5 130.5t164.5 79q102 26 246 26h493q272 0 397 -105t125 -305v-630q0 -106 -29 -182t-90.5 -126t-158.5 -77t-238 -33h-508q-174 6 -288.5 50t-171 131.5t-56.5 223.5h147q4 -83 38.5 -139t113 -87t215.5 -36h512q204 8 285.5 71.5 t81.5 203.5v329q-92 -143 -352 -143h-17h-508q-188 0 -304.5 39t-169 121t-52.5 210zM268 964q0 -114 82.5 -175.5t292.5 -61.5h512q154 0 234.5 41t106.5 105.5t26 154.5q-3 128 -90 197t-285 69h-502q-154 0 -235.5 -34t-109.5 -93q-30 -59 -32 -151v-52z" />
<glyph unicode=":" horiz-adv-x="381" d="M123 0v160h159v-160h-159zM123 746v159h159v-159h-159z" />
<glyph unicode=";" horiz-adv-x="381" d="M123 -4v160h159v-266q0 -74 -56 -111h-78q58 45 57 111v106h-82zM123 746v159h159v-159h-159z" />
<glyph unicode="&#x3c;" horiz-adv-x="758" d="M66 626l586 398v-160l-349 -238l349 -228v-156z" />
<glyph unicode="=" horiz-adv-x="889" d="M110 352v148h652v-148h-652zM110 680v148h652v-148h-652z" />
<glyph unicode="&#x3e;" horiz-adv-x="758" d="M106 242v156l348 228l-348 238v160l586 -398z" />
<glyph unicode="?" horiz-adv-x="1802" d="M90 1032q0 406 504 406h570q194 0 308.5 -42t165 -131t50.5 -233q0 -152 -71 -234.5t-208.5 -114t-360.5 -31.5q-113 0 -158.5 -45t-45.5 -140v-123h-160v140q0 310 364 310q161 0 261.5 16.5t159.5 68.5t59 153q0 102 -31 158t-108 80t-223 24h-560q-197 0 -275 -66 t-81 -196h-160zM684 0v160h160v-160h-160z" />
<glyph unicode="@" horiz-adv-x="1335" d="M78 876q0 108 39 214t114.5 188t188 131t252.5 49q120 0 235.5 -43t206.5 -144t127 -259q13 -102 13 -128q0 -78 -23 -147t-78 -114t-145 -45q-86 0 -114 53.5t-30 89.5q-9 -36 -63.5 -89.5t-190.5 -53.5q-84 0 -144 37t-91 98.5t-31 130.5q0 76 37 148t108 117.5 t167 45.5q86 0 136.5 -33.5t72 -74.5t24.5 -47l25 143h65l-45 -357q0 -4 -2 -14t-2 -14q0 -45 22.5 -75.5t67.5 -30.5q82 0 123 71t41 170q0 21 -12 107q-30 108 -79 183t-113 120.5t-140.5 65t-167.5 19.5q-163 0 -280.5 -72t-176.5 -189t-59 -247q0 -128 59 -244 t176 -187.5t281 -71.5q65 0 134.5 15.5t123.5 43.5t78 60l44 -58q-40 -50 -152 -90.5t-236 -40.5q-141 0 -251.5 47.5t-184.5 128.5t-112 183t-38 210zM422 848q0 -82 51 -141.5t141 -59.5q104 0 163 69.5t59 159.5q0 84 -48.5 147t-135.5 63q-70 0 -123 -34.5t-80 -89.5 t-27 -114z" />
<glyph unicode="A" horiz-adv-x="1732" d="M16 0l738 1422h225l737 -1422h-172l-182 356h-1000l-182 -356h-164zM442 500h844l-422 819z" />
<glyph unicode="B" horiz-adv-x="1822" d="M127 0v1422h1057q254 0 375 -90.5t121 -274.5q0 -146 -54 -216q-55 -69 -125 -91q38 -8 87.5 -40t90.5 -105t41 -187q0 -154 -55.5 -246.5t-165.5 -131.5q-111 -40 -279 -40h-1093zM274 144h1004q148 0 221.5 65t73.5 209q0 136 -77.5 195t-229.5 59h-992v-528zM274 815 h967q152 0 221 48q68 47 68 177q0 120 -67 179t-222 59h-967v-463z" />
<glyph unicode="C" horiz-adv-x="1868" d="M86 504v414q2 189 54 302t166 165.5t304 52.5h623q516 0 516 -406h-147q0 84 -34 142t-116 89t-217 31h-623q-148 0 -229 -33.5t-115 -115t-34 -227.5v-414q0 -108 19.5 -177.5t63.5 -110t115.5 -58.5t179.5 -18h623q200 0 283.5 62t83.5 200h147q0 -136 -51.5 -226 t-166 -135t-298.5 -45h-623q-192 0 -305 49.5t-165 159.5t-54 299z" />
<glyph unicode="D" horiz-adv-x="1847" d="M140 0v1422h1097q146 0 240 -25t151.5 -83t84.5 -157t28 -252v-377q-2 -192 -47 -306t-153.5 -168t-303.5 -54h-1097zM286 144h964q112 0 180 21t103 66t48 114t13 183v377q0 148 -29 227t-103 112.5t-215 33.5h-961v-1134z" />
<glyph unicode="E" d="M123 0v1422h1259v-144h-1112v-471h1084v-143h-1084v-520h1112v-144h-1259z" />
<glyph unicode="F" d="M123 0v1422h1259v-144h-1112v-471h1084v-143h-1084v-664h-147z" />
<glyph unicode="G" horiz-adv-x="1847" d="M98 488v430q2 191 54 303.5t166 164.5t304 52h628q259 0 385.5 -100t126.5 -306h-148q-3 129 -85.5 195.5t-281.5 66.5h-627q-148 0 -227.5 -34t-112 -114t-34.5 -228v-430q2 -134 37 -208.5t115 -105t222 -30.5h627q143 0 219 25.5t110 98.5q34 74 34 218v46h-698v144 h854v-111q0 -172 -24 -278.5t-80.5 -169.5t-155.5 -90t-256 -27h-628q-148 0 -247.5 30t-160 90t-87.5 150t-29 218z" />
<glyph unicode="H" horiz-adv-x="1802" d="M140 0v1422h146v-615h1262v615h148v-1422h-148v660h-1262v-660h-146z" />
<glyph unicode="I" horiz-adv-x="577" d="M209 0v1422h147v-1422h-147z" />
<glyph unicode="J" horiz-adv-x="1601" d="M78 368v107h148v-69q0 -130 85 -195t291 -67h383q202 3 288.5 70.5t86.5 219.5v988h148v-914q0 -182 -46 -291t-159.5 -162t-315.5 -55h-385q-276 3 -400 96.5t-124 271.5z" />
<glyph unicode="K" horiz-adv-x="1693" d="M102 0v1422h148v-609h238l898 611h258l-1003 -680l1028 -744h-258l-917 670h-244v-670h-148z" />
<glyph unicode="L" horiz-adv-x="1466" d="M140 0v1422h146v-1278h1072v-144h-1218z" />
<glyph unicode="M" horiz-adv-x="2310" d="M119 0h147v1306h84l766 -1306h76l766 1306h82v-1306h148v1422h-316l-717 -1213l-721 1213h-315v-1422z" />
<glyph unicode="N" horiz-adv-x="1802" d="M119 0v1422h327l1094 -1274v1274h148v-1422h-214l-1126 1310h-82v-1310h-147z" />
<glyph unicode="O" horiz-adv-x="1868" d="M106 488v442q2 140 29.5 235t88 155t160.5 89t251 29h623q181 0 290.5 -42t164.5 -153t57 -313v-442q-2 -153 -29 -248t-86 -147.5t-153 -72.5t-244 -20h-623q-145 0 -245 26t-162 82t-91 149t-31 231zM254 488q2 -103 22.5 -169.5t65 -105t114.5 -54t177 -15.5h623 q154 0 229.5 28t105 99t31.5 217v454q-2 144 -34.5 218.5t-109 104t-222.5 29.5h-623q-137 0 -217 -31t-119 -108t-43 -213v-454z" />
<glyph unicode="P" horiz-adv-x="1667" d="M127 2v1420h959q178 0 287 -43.5t160.5 -140t51.5 -255.5q0 -158 -49.5 -243.5t-155.5 -118.5t-292 -33h-814v-586h-147zM274 731h856q120 0 185 19.5t94 72.5t29 160q0 163 -67 229t-226 66h-871v-547z" />
<glyph unicode="Q" horiz-adv-x="1868" d="M102 488v442q2 178 50 286.5t162.5 162t316.5 55.5h623q180 0 290 -42t166 -152t60 -310v-442q0 -174 -46 -288l115 -77l-82 -123l-119 82q-58 -45 -138 -62t-242 -20h-627q-186 2 -299.5 45.5t-170.5 148.5q-57 106 -59 294zM250 488q0 -100 20 -166t65 -104.5 t117 -55.5q72 -16 181 -18h619q62 0 132 8t99 24l-496 320l90 118l517 -336q28 68 28 210v442q-2 123 -20 193t-58 106t-107 48.5t-181 12.5h-623q-112 0 -185.5 -19t-116.5 -61t-62 -110t-19 -170v-442z" />
<glyph unicode="R" horiz-adv-x="1761" d="M131 -2v1422h1024q174 0 284.5 -51.5t160.5 -143t50 -213.5q0 -100 -27.5 -165.5t-68.5 -103t-104 -73.5q76 -16 127 -102t51 -236v-332h-148v348q0 130 -53 183t-169 53h-980v-586h-147zM278 727h922q148 0 226 72q77 71 77 239q0 104 -79.5 171t-213.5 67h-932v-549z " />
<glyph unicode="S" horiz-adv-x="1888" d="M110 1020q0 142 49 231t151 130t264 41h716q238 0 361 -100.5t123 -301.5h-148q-2 84 -36.5 141t-115 87t-214.5 30h-684q-128 0 -198 -28t-95 -83t-25 -147q0 -82 28 -128t107 -67.5t229 -21.5h636q186 0 302 -38.5t171 -120.5t55 -214v-28q-6 -150 -54 -238t-148 -126 t-265 -38h-733q-143 0 -247 45t-160 136t-56 225h147q2 -84 36 -142t114.5 -89t214.5 -31h671q169 0 250 62q82 64 82 200q0 94 -30 148t-104 80t-208 26h-714q-140 0 -233.5 23t-145 67t-72.5 110t-21 160z" />
<glyph unicode="T" horiz-adv-x="1622" d="M45 1278v144h1532v-144h-695v-1278h-147v1278h-690z" />
<glyph unicode="U" horiz-adv-x="1888" d="M123 488v934h147v-992q0 -100 33.5 -161.5t116 -92t232.5 -32.5h624q130 2 209 35t114 97t35 162v984h148v-930q0 -196 -55 -302.5t-163 -147t-290 -42.5h-622q-188 2 -302.5 45.5t-170.5 149t-56 293.5z" />
<glyph unicode="V" horiz-adv-x="1724" d="M14 1422l762 -1422h158l766 1422h-172l-656 -1262h-30l-656 1262h-172z" />
<glyph unicode="W" horiz-adv-x="2621" d="M16 1422l582 -1422h209l487 1258l492 -1258h209l581 1422h-164l-504 -1270h-32l-496 1270h-168l-495 -1270h-33l-504 1270h-164z" />
<glyph unicode="X" horiz-adv-x="1757" d="M-33 0h197l684 684l684 -684h196l-753 754l667 668h-196l-598 -603l-598 603h-186l657 -668z" />
<glyph unicode="Y" horiz-adv-x="1646" d="M0 1424l742 -744v-680h159v680l741 744h-194l-627 -628l-627 628h-194z" />
<glyph unicode="Z" horiz-adv-x="1622" d="M98 0v114l1160 1164h-1160v144h1387v-112l-1151 -1166h1182v-144h-1418z" />
<glyph unicode="[" horiz-adv-x="536" d="M131 -230v1790h287v-77h-148v-1635h158v-78h-297z" />
<glyph unicode="\" horiz-adv-x="647" d="M28 1491h160l455 -1675h-155z" />
<glyph unicode="]" horiz-adv-x="536" d="M100 -150h158v1633h-148v77h288v-1790h-298v80z" />
<glyph unicode="^" horiz-adv-x="803" d="M58 1082l298 286h82l300 -286h-66l-274 200l-275 -200h-65z" />
<glyph unicode="_" horiz-adv-x="803" d="M4 -4h794v-78h-794v78z" />
<glyph unicode="`" horiz-adv-x="577" d="M74 1392l86 99l315 -279l-57 -48z" />
<glyph unicode="a" horiz-adv-x="1456" d="M98 258v123q0 110 78 173.5t238 63.5h590q105 0 142.5 -30t41.5 -50v140q0 93 -60.5 152t-185.5 59h-391q-157 0 -203.5 -49t-46.5 -82v-37h-151v37h-4q0 31 22.5 88.5t104.5 111.5t241 54h444q382 0 382 -356v-656h-148v82q-14 -20 -59 -51t-121 -31h-574 q-340 0 -340 258zM246 274q0 -73 48.5 -110t172.5 -37h499q116 0 169 44.5t53 140.5q0 184 -222 184h-499q-131 0 -176 -35.5t-45 -112.5v-74z" />
<glyph unicode="b" horiz-adv-x="1491" d="M106 0v1422h148v-521q18 29 85.5 72t209.5 43h397q108 0 189 -28t133.5 -79.5t79.5 -124.5q26 -74 28 -166v-220q-3 -192 -108.5 -295.5t-321.5 -106.5h-397q-135 0 -205 43t-90 71v-110h-148zM246 508q0 -15 2 -50.5t2 -59.5q0 -123 82 -201t238 -78h323q176 0 256 67.5 t80 211.5v220q0 274 -336 275h-328q-156 0 -235.5 -75.5t-79.5 -199.5q0 -24 -2 -60t-2 -50z" />
<glyph unicode="c" horiz-adv-x="1466" d="M86 372v254q0 111 47 199.5t141.5 139.5t233.5 51h442l4 -4q174 0 269 -64t124 -139.5t29 -132.5v-16h-147v12q0 74 -56.5 147.5t-222.5 73.5h-442q-132 0 -203 -66.5t-71 -200.5v-254q0 -118 76 -186q76 -67 188 -67h446h4q114 0 177 39.5t83.5 88.5t20.5 89v20h147v-16 q0 -110 -84 -227q-86 -117 -342 -117h-454q-206 0 -308 100t-102 276z" />
<glyph unicode="d" horiz-adv-x="1491" d="M94 508q0 14 2 47t2 63q2 118 49 207.5t143 140t238 50.5h398q140 0 208 -43t86 -72v521h148v-1422h-148v98q-28 -26 -103 -64t-191 -38h-398q-210 3 -318 103q-108 101 -112 299q0 30 -2 62.5t-2 47.5zM246 398q0 -142 81 -208.5t251 -66.5h327q156 0 236 75.5t83 199.5 v220q-3 124 -83 199.5t-236 75.5h-327q-174 0 -253 -69.5t-79 -205.5v-220z" />
<glyph unicode="e" horiz-adv-x="1491" d="M102 377v266q0 95 51 181t149 139t230 53h426q208 0 321 -102t113 -254v-164h-1142v-98q0 -278 280 -279h482q116 0 174.5 53.5t58.5 130.5v21h147v-21q0 -72 -34 -142.5t-115 -117.5t-211 -47h-496q-219 0 -326.5 96t-107.5 285zM250 618h995q0 85 -32.5 147t-94 95 t-145.5 33h-463q-76 0 -135 -34t-92 -96q-33 -63 -33 -145z" />
<glyph unicode="f" horiz-adv-x="803" d="M37 897v123h127v24q0 378 364 378h214v-128h-214q-110 0 -163 -60q-53 -62 -53 -194v-20h434v-123h-434v-897h-148v897h-127z" />
<glyph unicode="g" d="M110 540q0 12 2 44t2 47q6 381 414 381h426q139 0 206.5 -42t84.5 -69v111h147v-1118q0 -328 -430 -328h-409q-118 0 -206 33t-135.5 94t-47.5 143h160q0 -60 62 -104t182 -44h384q94 0 161 27t99.5 71t32.5 95v238q-10 -24 -44.5 -52t-94.5 -47.5t-144 -19.5h-422 q-144 4 -237 45t-140 122t-49 205q0 30 -2 86t-2 82zM262 398q0 -143 83 -209t253 -66h336q154 0 233.5 76.5t82.5 198.5v220q-3 123 -81.5 197t-234.5 74h-336q-180 0 -258 -64.5t-78 -206.5v-220z" />
<glyph unicode="h" horiz-adv-x="1491" d="M110 0v1422h148v-554q4 6 17 28t44 49t89.5 47t144.5 20h393q226 0 332 -110t106 -288v-614h-147v614q0 132 -79.5 203.5t-211.5 71.5h-393q-134 0 -214.5 -71.5t-80.5 -203.5v-614h-148z" />
<glyph unicode="i" horiz-adv-x="467" d="M160 0v1012h147v-1012h-147zM160 1274v148h147v-148h-147z" />
<glyph unicode="j" horiz-adv-x="577" d="M37 -286h33q60 0 108 36t48 136v1124l146 2v-1176q0 -162 -110 -216t-213 -54h-12v148zM226 1274v148h146v-148h-146z" />
<glyph unicode="k" horiz-adv-x="1270" d="M119 0v1422h147v-794h168l524 382h236l-639 -451l692 -561h-213l-610 504h-158v-502h-147z" />
<glyph unicode="l" horiz-adv-x="491" d="M184 0v1422h148v-1422h-148z" />
<glyph unicode="m" horiz-adv-x="2308" d="M98 0v1012h152v-156q14 39 85 97.5t235 58.5h200q122 0 200 -28t116 -65t53.5 -68t19.5 -40q2 7 15.5 38t51 68.5t115 66t199.5 28.5h230q138 0 238 -48t152 -128t52 -176v-660h-148v631q0 124 -86 191t-246 67h-151q-112 0 -190.5 -29.5t-120 -92.5t-41.5 -157v-610 h-147v614q0 89 -42 151.5t-116 93t-170 30.5h-160q-118 0 -197 -40t-115 -101.5t-36 -125.5v-622h-148z" />
<glyph unicode="n" d="M119 2v1010h147v-164q10 41 73.5 102.5t221.5 61.5h389q158 0 257 -57t142 -151t43 -214v-588h-147v608q0 130 -80.5 204.5t-214.5 74.5h-389q-132 0 -213.5 -74.5t-81.5 -204.5v-608h-147z" />
<glyph unicode="o" horiz-adv-x="1466" d="M86 508q0 14 2 50t2 60q3 184 108.5 291t333.5 107h406q158 0 257 -53.5t141 -142t44 -202.5v-220q-2 -114 -46 -204t-142.5 -144t-253.5 -54h-406q-436 0 -442 402q0 24 -2 59.5t-2 50.5zM238 398q0 -278 304 -279h386q306 1 305 279v220q0 132 -78.5 203.5t-226.5 71.5 h-386q-102 0 -168 -28t-100 -88.5t-36 -158.5v-220z" />
<glyph unicode="p" horiz-adv-x="1466" d="M106 -414v1426h148v-111q18 28 83 69.5t199 41.5h13h397q153 0 248.5 -53t137.5 -142t44 -203v-221q-3 -120 -48 -209t-140.5 -138.5t-241.5 -49.5h-397q-141 0 -209 43t-86 71v-524h-148zM246 504q0 -12 2 -49t2 -62q0 -120 79 -197t234 -77h330q168 0 252 65t84 209 v221q0 274 -336 275h-328q-156 0 -235.5 -76t-79.5 -199q0 -24 -2 -61t-2 -49z" />
<glyph unicode="q" horiz-adv-x="1491" d="M110 396v220q3 186 111 291q107 105 319 105h398h8q90 0 153 -24.5t94 -49.5t40 -37v111h147v-1426h-147v512q-18 -26 -86 -64t-209 -38h-398q-142 0 -237 45t-143 134t-50 221zM258 393q0 -274 336 -274h328q153 0 232.5 76.5t82.5 197.5v221q-3 124 -82 199.5 t-233 75.5h-328q-170 0 -253 -63.5t-83 -211.5v-221z" />
<glyph unicode="r" horiz-adv-x="1394" d="M123 0v1012h147v-132q12 33 71 82.5t199 49.5h288q138 0 226 -43t131 -106t58 -123t15 -109v-29h-148v12q0 90 -60 182.5t-237 92.5h-262q-79 0 -143 -33.5t-101 -88.5t-37 -115v-652h-147z" />
<glyph unicode="s" horiz-adv-x="1491" d="M98 250v74h148v-58q0 -47 17 -78t69 -50t154 -19h520q108 0 165.5 37.5t57.5 105.5v45q0 68 -50 105q-51 38 -143 38h-590q-344 0 -344 262v42q0 73 39.5 132t120.5 94.5t201 35.5h479q438 0 438 -250v-70h-147v66q0 48 -56.5 89.5t-230.5 41.5h-508q-93 0 -142 -36 q-50 -35 -50 -103v-42q0 -138 192 -138h590q348 0 348 -267v-45q0 -71 -39.5 -131.5t-122 -97.5t-202.5 -37h-562q-352 0 -352 254z" />
<glyph unicode="t" horiz-adv-x="1200" d="M28 893h128v-510q0 -190 96 -286.5t268 -96.5h211q258 0 344 119t86 262v29h-147v-12q0 -77 -19 -136t-84 -99t-194 -40h-197q-97 0 -157 59.5t-60 177.5v533h764v123h-764v196h-147v-196h-128v-123z" />
<glyph unicode="u" horiz-adv-x="1491" d="M110 398v614h148v-627q0 -130 78 -198t217 -68h397q120 0 207.5 67.5t87.5 185.5v640h147v-1012h-142v123q-24 -32 -98.5 -79.5t-201.5 -47.5h-397q-443 0 -443 402z" />
<glyph unicode="v" horiz-adv-x="1290" d="M10 1012l560 -1012h157l559 1012h-164l-458 -852h-31l-459 852h-164z" />
<glyph unicode="w" horiz-adv-x="1857" d="M-33 1008h158l338 -848h35l330 848h180l330 -848h34l338 848h158l-412 -1008h-192l-346 891l-346 -891h-193z" />
<glyph unicode="x" horiz-adv-x="1304" d="M12 0l545 549l-467 463h180l382 -373l372 373h180l-466 -463l548 -549h-184l-455 454l-459 -454h-176z" />
<glyph unicode="y" horiz-adv-x="1198" d="M4 1012h154l470 -868h30l372 868h154l-508 -1145q-50 -112 -98 -175t-123 -94.5t-197 -31.5h-49v122h86q81 0 132 36t84.5 96t84.5 180h-37z" />
<glyph unicode="z" horiz-adv-x="1290" d="M82 0v114l860 775h-852v123h1071v-111l-856 -778h869v-123h-1092z" />
<glyph unicode="{" horiz-adv-x="602" d="M66 631q33 20 82 73q48 54 48 128v397q0 311 312 311v-114q-104 0 -150 -49.5t-46 -147.5v-397q0 -84 -46 -134t-78 -67q31 -22 77.5 -76.5t46.5 -124.5v-397q0 -100 46 -146.5t150 -46.5v-110h-12q-144 0 -222 77t-78 226v397q0 73 -49 126.5t-81 74.5z" />
<glyph unicode="|" horiz-adv-x="354" d="M119 -274v1790h115v-1790h-115z" />
<glyph unicode="}" horiz-adv-x="602" d="M94 -213q0 15 2 31t2 22q100 0 146.5 47t46.5 146v397q0 69 46 124q47 54 77 77q-30 16 -76.5 66.5t-46.5 134.5v397q0 98 -44.5 147.5t-148.5 49.5q-4 0 -4 82q0 10 2 19t2 13q308 0 308 -311v-397q0 -74 50 -127t84 -74q-34 -22 -84 -75.5t-50 -125.5v-397 q0 -149 -79 -226t-221 -77h-8q-4 0 -4 57z" />
<glyph unicode="~" horiz-adv-x="1134" d="M168 708q10 52 72 131t223 79q56 0 92.5 -14t74.5 -41t63.5 -39t68.5 -13l4 -4q74 0 99.5 38.5t27.5 64.5h135q-3 -24 -23.5 -71.5t-83.5 -95t-175 -47.5l-4 4q-68 3 -113 29.5t-87 51t-108 26.5h-12q-62 0 -86.5 -37.5t-28.5 -61.5h-139z" />
<glyph unicode="&#xa2;" horiz-adv-x="1622" d="M172 536v246q0 115 49 205.5t144 141.5t229 51h144v130h146v-130h136l4 -4q190 0 287 -75.5t124 -155.5q27 -79 27 -121h-147q0 28 -17.5 80t-83 102.5t-194.5 50.5h-136v-766h136q182 0 238.5 83.5t56.5 141.5v4h147q0 -39 -25.5 -118.5t-124 -158.5t-292.5 -79h-136 v-115h-146v115h-156q-130 0 -223 58.5t-140 145.5q-47 86 -47 168zM320 536q0 -106 82 -176q84 -69 180 -69h156v766h-144q-124 0 -199 -71.5t-75 -203.5v-246z" />
<glyph unicode="&#xa3;" horiz-adv-x="733" d="M123 0v160h159v-266q0 -68 -56 -111h-78q58 45 57 111v106h-82zM450 0v160h160v-266q0 -72 -57 -111h-78q61 41 61 111v106h-86z" />
<glyph unicode="&#xa5;" horiz-adv-x="1732" d="M45 1422h205l614 -615l614 615h206l-738 -746h340v-115h-340v-53h340v-115h-340v-393h-160v393h-336v115h336v53h-336v115h340z" />
<glyph unicode="&#xa8;" d="M123 0v1422h1261v-148h-1114v-467h1082v-147h-1082v-512h1114v-148h-1261zM540 1524v131h132v-131h-132zM852 1524v131h131v-131h-131z" />
<glyph unicode="&#xa9;" horiz-adv-x="1335" d="M86 983q0 146 68 277.5t202 213.5t320 82q185 0 317 -80.5t198.5 -211t66.5 -277.5t-66.5 -277t-198.5 -211t-317 -81q-140 0 -252 47t-186.5 127t-113 181.5t-38.5 209.5zM131 987q0 -99 35 -192t104.5 -169t172.5 -119.5t233 -43.5h4q170 0 292 73.5t183 193.5t61 253 q0 135 -61.5 257t-184.5 197t-294 75q-130 0 -233 -44t-172 -119.5t-104.5 -169t-35.5 -192.5zM385 979q0 68 33.5 130.5t100 101.5t157.5 39q61 0 107.5 -19t73.5 -41q27 -20 27 -26v-54q-16 24 -67.5 59t-140.5 35q-76 0 -132 -32t-85 -84t-29 -109q0 -90 66.5 -157.5 t179.5 -67.5q66 0 113 23t71 50t24 33v-66q-16 -20 -67.5 -51t-140.5 -31q-91 0 -157.5 38t-100 100t-33.5 129z" />
<glyph unicode="&#xab;" horiz-adv-x="1134" d="M106 570l422 421l66 -69l-352 -352l348 -344l-70 -70zM475 570l422 421l65 -69l-352 -352l348 -344l-69 -70z" />
<glyph unicode="&#xad;" horiz-adv-x="889" d="M110 520v152h652v-152h-652z" />
<glyph unicode="&#xae;" horiz-adv-x="1335" d="M86 983q0 146 68 277.5t202 213.5t320 82q185 0 317 -80.5t198.5 -211t66.5 -277.5t-66.5 -277t-198.5 -211t-317 -81q-140 0 -252 47t-186.5 127t-113 181.5t-38.5 209.5zM131 987q0 -99 35 -192t104.5 -169t172.5 -119.5t233 -43.5h4q170 0 292 73.5t183 193.5t61 253 q0 135 -61.5 257t-184.5 197t-294 75q-130 0 -233 -44t-172 -119.5t-104.5 -169t-35.5 -192.5zM479 684v614h263q34 0 88 -36t54 -136q0 -64 -32 -100t-68 -48t-51 -12h-111l271 -282h-57l-266 282h-42v-282h-49zM528 1012h214q24 3 61 25.5t37 80.5v8q0 72 -40 100t-62 28 h-210v-242z" />
<glyph unicode="&#xb4;" horiz-adv-x="577" d="M74 1212l57 -48l344 228l-86 99z" />
<glyph unicode="&#xb8;" horiz-adv-x="1491" d="M102 377v266q0 95 51 181t149 139t230 53h426q208 0 321 -102t113 -254v-148h-1142v-114q0 -274 282 -275h480q116 0 174.5 51.5t58.5 128.5v21h147v-21q0 -72 -34 -142.5t-115 -117.5t-211 -47h-496q-219 0 -326.5 96t-107.5 285zM250 639h995q0 112 -73.5 181 t-200.5 69h-463q-114 0 -186 -69.5t-72 -180.5zM488 1274v148h147v-148h-147zM852 1274v148h148v-148h-148z" />
<glyph unicode="&#xbb;" horiz-adv-x="1134" d="M164 926l66 65l422 -421l-410 -410l-70 66l344 344zM540 926l70 65l422 -421l-414 -410l-65 66l344 344z" />
<glyph unicode="&#x410;" horiz-adv-x="1732" d="M16 0l738 1422h225l737 -1422h-172l-182 356h-1000l-182 -356h-164zM442 500h844l-422 819z" />
<glyph unicode="&#x411;" horiz-adv-x="1667" d="M127 0h1013q128 0 212.5 23t136 73t74 127t22.5 191q0 158 -49.5 249.5t-158.5 131t-289 39.5h-814v444h1190v144h-1337v-1422zM274 144v546h856q116 0 183 -26t96 -86t29 -168t-29.5 -166t-91.5 -79t-172 -21h-871z" />
<glyph unicode="&#x412;" horiz-adv-x="1822" d="M127 0v1422h1057q254 0 375 -90.5t121 -274.5q0 -146 -54 -216q-55 -69 -125 -91q38 -8 87.5 -40t90.5 -105t41 -187q0 -154 -55.5 -246.5t-165.5 -131.5q-111 -40 -279 -40h-1093zM274 144h1004q148 0 221.5 65t73.5 209q0 136 -77.5 195t-229.5 59h-992v-528zM274 815 h967q152 0 221 48q68 47 68 177q0 120 -67 179t-222 59h-967v-463z" />
<glyph unicode="&#x413;" horiz-adv-x="1466" d="M140 0h146v1278h1072v144h-1218v-1422z" />
<glyph unicode="&#x414;" horiz-adv-x="1947" d="M92 144h76q92 65 138 151.5t46 212.5v912h1403v-1276h119v-529h-142v385h-1500v-385h-140v529zM344 144h1264v1132h-1108v-729q0 -133 -38 -241q-37 -108 -118 -162z" />
<glyph unicode="&#x415;" d="M123 0v1422h1255v-144h-1108v-471h1084v-143h-1084v-520h1112v-144h-1259z" />
<glyph unicode="&#x416;" horiz-adv-x="2883" d="M43 0h231l828 692h260v-692h148v692h262l825 -692h231l-936 768l918 656h-238l-825 -588h-237v586h-148v-586h-238l-825 588h-237l917 -656z" />
<glyph unicode="&#x417;" horiz-adv-x="1868" d="M86 402h148q0 -138 83 -200t283 -62h622q146 0 227 24t117 85t36 173q0 240 -240 240h-878v143h837q98 0 151.5 18.5t76 64.5t22.5 130q0 104 -32.5 163.5t-111.5 86t-225 26.5h-602q-136 0 -217.5 -31t-115 -89t-33.5 -142h-148q0 406 516 406h602q178 0 293 -50 t168 -140t53 -210q0 -142 -45 -208q-45 -64 -125 -88q106 -38 153.5 -118.5t47.5 -234.5q0 -140 -52 -226t-167.5 -126.5t-305.5 -40.5h-622q-138 0 -238 26t-160.5 76t-89 126.5t-28.5 177.5z" />
<glyph unicode="&#x418;" horiz-adv-x="1802" d="M119 0h239l1127 1310h55v-1310h148v1422h-285l-1125 -1312h-12v1312h-147v-1422z" />
<glyph unicode="&#x419;" horiz-adv-x="1802" d="M119 0h239l1127 1310h55v-1310h148v1422h-285l-1125 -1312h-12v1312h-147v-1422zM344 1812q0 -41 17.5 -97t63 -111.5t131.5 -93.5t214 -38h166q140 0 228 40t130 97.5t55 110t13 92.5h-148q0 -40 -20 -89t-82.5 -88t-177.5 -39h-162q-164 0 -222 72t-58 144h-148z" />
<glyph unicode="&#x41a;" horiz-adv-x="1732" d="M102 0v1422h148v-586h238l966 586h250l-1061 -648l1053 -774h-254l-948 692h-244v-692h-148z" />
<glyph unicode="&#x41b;" horiz-adv-x="1837" d="M41 0v144h78q63 0 110 44t47 148v1086h1454v-1422h-147v1274h-1159v-938q0 -181 -83 -258.5t-241 -77.5h-59z" />
<glyph unicode="&#x41c;" horiz-adv-x="2310" d="M119 0h147v1306h84l766 -1306h76l766 1306h82v-1306h148v1422h-316l-717 -1213l-721 1213h-315v-1422z" />
<glyph unicode="&#x41d;" horiz-adv-x="1802" d="M140 0v1422h146v-615h1262v615h148v-1422h-148v660h-1262v-660h-146z" />
<glyph unicode="&#x41e;" horiz-adv-x="1868" d="M106 488v442q2 140 29.5 235t88 155t160.5 89t251 29h623q181 0 290.5 -42t164.5 -153t57 -313v-442q-2 -153 -29 -248t-86 -147.5t-153 -72.5t-244 -20h-623q-145 0 -245 26t-162 82t-91 149t-31 231zM254 488q2 -103 22.5 -169.5t65 -105t114.5 -54t177 -15.5h623 q154 0 229.5 28t105 99t31.5 217v454q-2 144 -34.5 218.5t-109 104t-222.5 29.5h-623q-137 0 -217 -31t-119 -108t-43 -213v-454z" />
<glyph unicode="&#x41f;" horiz-adv-x="1802" d="M140 0v1422h1556v-1422h-148v1274h-1262v-1274h-146z" />
<glyph unicode="&#x420;" horiz-adv-x="1667" d="M127 2v1420h959q178 0 287 -43.5t160.5 -140t51.5 -255.5q0 -158 -49.5 -243.5t-155.5 -118.5t-292 -33h-814v-586h-147zM274 731h856q120 0 185 19.5t94 72.5t29 160q0 163 -67 229t-226 66h-871v-547z" />
<glyph unicode="&#x421;" horiz-adv-x="1868" d="M86 504v414q2 189 54 302t166 165.5t304 52.5h623q516 0 516 -406h-147q0 84 -34 142t-116 89t-217 31h-623q-148 0 -229 -33.5t-115 -115t-34 -227.5v-414q0 -108 19.5 -177.5t63.5 -110t115.5 -58.5t179.5 -18h623q200 0 283.5 62t83.5 200h147q0 -136 -51.5 -226 t-166 -135t-298.5 -45h-623q-192 0 -305 49.5t-165 159.5t-54 299z" />
<glyph unicode="&#x422;" horiz-adv-x="1622" d="M45 1278v144h1532v-144h-695v-1278h-147v1278h-690z" />
<glyph unicode="&#x423;" horiz-adv-x="1616" d="M18 1424h170l638 -1000l589 1000h177l-611 -1014q-82 -138 -138.5 -215.5t-108.5 -119.5t-114 -58.5t-155 -16.5h-49v144h51q78 0 123 14t77 47q33 33 75 104z" />
<glyph unicode="&#x424;" horiz-adv-x="2281" d="M96 626v177q2 138 29 233.5t87 156t160 89.5q100 28 252 28h430v128h148v-128h430q198 0 314 -55t165 -166.5t49 -285.5v-177q0 -184 -51.5 -289.5t-166 -151t-310.5 -45.5h-430v-140h-148v140h-430q-148 0 -246 25t-160 81t-91 149t-31 231zM246 626q2 -103 22 -168.5 t64.5 -104.5t115 -55t176.5 -16h430v886h-430q-104 -1 -172.5 -18.5t-113.5 -57.5t-67 -108t-25 -171v-187zM1202 282h432q144 0 225 29t117.5 103t36.5 212v187q0 136 -39 213.5t-121.5 109.5t-218.5 32h-432v-886z" />
<glyph unicode="&#x425;" horiz-adv-x="1757" d="M-33 0h197l684 684l684 -684h196l-753 754l667 668h-196l-598 -603l-598 603h-186l657 -668z" />
<glyph unicode="&#x426;" horiz-adv-x="1917" d="M140 0v1422h146v-1274h1262v1274h148v-1274h118v-533h-138v385h-1536z" />
<glyph unicode="&#x427;" horiz-adv-x="1747" d="M129 1059v365h147v-422q0 -100 34 -160.5t116 -90.5t232 -32h474q127 0 201 26.5t107.5 75.5t52.5 123v478h147v-468v-954h-147v698q-95 -124 -361 -126h-474q-188 2 -302.5 45t-170.5 149t-56 293z" />
<glyph unicode="&#x428;" horiz-adv-x="2463" d="M156 0v1422h147v-1278h854v1278h147v-1278h854v1278h148v-1422h-2150z" />
<glyph unicode="&#x429;" horiz-adv-x="2463" d="M156 0v1422h147v-1278h854v1278h147v-1278h854v1278h148v-1278h121v-533h-141v389h-2130z" />
<glyph unicode="&#x42a;" horiz-adv-x="1892" d="M33 1278h319v-1278h1014q128 0 212 23t136 73t74 127t22 191q0 158 -49.5 249.5t-158 131t-289.5 39.5h-813v588h-148h-319v-144zM500 144v546h856q116 0 182.5 -26t95.5 -86t29 -168t-29.5 -166t-91.5 -79t-172 -21h-870z" />
<glyph unicode="&#x42b;" horiz-adv-x="2105" d="M127 0h1013q128 0 212.5 23t136 73t74 127t22.5 191q0 158 -49.5 249.5t-158.5 131t-289 39.5h-814v588h-147v-1422zM274 144v546h856q116 0 183 -26t96 -86t29 -168t-29.5 -166t-91.5 -79t-172 -21h-871zM1829 0v1422h147v-1422h-147z" />
<glyph unicode="&#x42c;" horiz-adv-x="1667" d="M127 0h1013q128 0 212.5 23t136 73t74 127t22.5 191q0 158 -49.5 249.5t-158.5 131t-289 39.5h-814v588h-147v-1422zM274 144v546h856q116 0 183 -26t96 -86t29 -168t-29.5 -166t-91.5 -79t-172 -21h-871z" />
<glyph unicode="&#x42d;" horiz-adv-x="1868" d="M86 402h148q0 -138 83 -200t283 -62h622q145 0 226.5 32t117.5 111t36 221v158h-1230v143h1230v113q0 147 -35 228t-116 114.5t-229 33.5h-622q-136 0 -217.5 -31t-115 -89t-33.5 -142h-148q0 406 516 406h622q190 0 305 -52.5t166 -166t54 -301.5v-414 q-2 -189 -53.5 -299t-165.5 -159.5t-306 -49.5h-622q-138 0 -238 26t-160.5 76t-89 126t-28.5 178z" />
<glyph unicode="&#x42e;" horiz-adv-x="2435" d="M125 0v1422h147v-619h402v127q2 184 51 294.5t164 162t313 51.5h623q182 0 291 -42t164 -152.5t57 -313.5v-442q-2 -154 -29 -248.5t-86 -147t-153.5 -72.5t-243.5 -20h-623q-145 0 -245.5 26t-161.5 82t-90 149t-31 231v172h-402v-660h-147zM821 488q2 -104 22.5 -170 t65 -104.5t115 -54t176.5 -15.5h622q154 0 230 28t106 100t32 216v454q-2 142 -35 217.5t-110 105t-223 29.5h-622q-138 0 -218 -31t-118 -107t-43 -214v-454z" />
<glyph unicode="&#x42f;" horiz-adv-x="1677" d="M28 2l484 586q-426 3 -426 395q0 159 51 255.5t161 139.5q110 44 288 44h958v-1420h-148v586h-708l-454 -586h-206zM234 983q0 -107 28.5 -160t93 -72.5t184.5 -19.5h856v547h-870q-106 0 -169.5 -28t-93 -93t-29.5 -174z" />
<glyph unicode="&#x430;" horiz-adv-x="1456" d="M98 258v123q0 110 78 173.5t238 63.5h590q105 0 142.5 -30t41.5 -50v140q0 93 -60.5 152t-185.5 59h-391q-157 0 -203.5 -49t-46.5 -82v-37h-151v37h-4q0 31 22.5 88.5t104.5 111.5t241 54h444q382 0 382 -356v-656h-148v82q-14 -20 -59 -51t-121 -31h-574 q-340 0 -340 258zM246 274q0 -73 48.5 -110t172.5 -37h499q116 0 169 44.5t53 140.5q0 184 -222 184h-499q-131 0 -176 -35.5t-45 -112.5v-74z" />
<glyph unicode="&#x431;" horiz-adv-x="1466" d="M92 396v386q0 136 39 252t127 188q90 72 228 72h448q105 0 162.5 13.5t81.5 41t24 75.5h117q0 -90 -38.5 -146t-118.5 -81t-208 -25h-432q-147 0 -215.5 -89t-68.5 -215q80 148 294 148h406q158 0 257 -53.5t141 -142t44 -202.5v-220q-2 -114 -46 -204t-142.5 -144 t-253.5 -54h-406q-147 0 -245.5 46.5t-146.5 136t-48 217.5zM238 398q0 -278 304 -279h386q306 1 305 279v220q0 132 -78.5 203.5t-226.5 71.5h-386q-149 0 -226.5 -71.5t-77.5 -203.5v-220z" />
<glyph unicode="&#x432;" d="M123 0v1020h887q182 0 271 -69t89 -193v-41q0 -80 -44 -131.5t-116 -65.5q93 -21 140 -79q46 -57 46 -129v-46q0 -126 -90 -196t-274 -70h-909zM270 127h758q107 0 164.5 35.5t57.5 103.5v46q0 72 -48 107t-196 35h-736v-327zM270 578h764q188 0 188 139v41 q0 68 -50 103.5t-142 35.5h-760v-319z" />
<glyph unicode="&#x433;" horiz-adv-x="1124" d="M94 0v1012h963v-123h-815v-889h-148z" />
<glyph unicode="&#x434;" horiz-adv-x="1622" d="M90 123h78q156 86 156 387v502h1120v-889h118v-508h-140v385h-1190v-385h-142v508zM342 123h954v766h-825v-361q0 -322 -129 -405z" />
<glyph unicode="&#x435;" horiz-adv-x="1491" d="M102 377v266q0 95 51 181t149 139t230 53h426q208 0 321 -102t113 -254v-164h-1142v-98q0 -278 280 -279h482q116 0 174.5 53.5t58.5 130.5v21h147v-21q0 -72 -34 -142.5t-115 -117.5t-211 -47h-496q-219 0 -326.5 96t-107.5 285zM250 618h995q0 85 -32.5 147t-94 95 t-145.5 33h-463q-76 0 -135 -34t-92 -96q-33 -63 -33 -145z" />
<glyph unicode="&#x436;" horiz-adv-x="2001" d="M28 0h204l556 504h144v-504h148v504h142l558 -504h202l-634 570l573 442h-217l-480 -386h-144v386h-148v-386h-146l-479 386h-217l574 -442z" />
<glyph unicode="&#x437;" horiz-adv-x="1491" d="M98 250q0 -254 352 -254q90 0 274 1.5t288 2.5q186 0 275 68.5t89 193.5v45q0 70 -46.5 129t-139.5 80q72 14 116 65t44 131v42q0 123 -90 192.5t-271 69.5h-453q-250 0 -344 -72t-94 -178v-70h148v66q0 48 56 90q56 41 230 41h478q93 0 142 -36q50 -35 50 -103v-42 q0 -138 -188 -138h-551v-124h522q149 0 196.5 -35.5t47.5 -107.5v-45q0 -68 -57.5 -103.5t-163.5 -35.5h-524q-98 0 -151 17.5t-70 48t-17 77.5v58h-148v-74z" />
<glyph unicode="&#x438;" d="M119 0v1012h147v-898h48l833 898h245v-1012h-147v897h-41l-834 -897h-251z" />
<glyph unicode="&#x439;" d="M119 0v1012h147v-898h48l833 898h245v-1012h-147v897h-41l-834 -897h-251zM320 1366h118q0 -60 21 -94t81.5 -50t178.5 -16h19q118 0 178 16t81 50t21 94h118q0 -98 -30 -157t-119.5 -90t-261.5 -31q-166 0 -255 31.5t-119.5 91t-30.5 155.5z" />
<glyph unicode="&#x43a;" horiz-adv-x="1270" d="M119 0v1012h147v-386h160l532 386h236l-639 -451l692 -561h-213l-610 504h-158v-504h-147z" />
<glyph unicode="&#x43b;" horiz-adv-x="1562" d="M43 0v123h43q110 0 163.5 62.5t53.5 195.5v631h1141v-1012h-148v889h-846v-512q0 -377 -364 -377h-43z" />
<glyph unicode="&#x43c;" horiz-adv-x="1779" d="M108 0h148v897h45l537 -897h98l536 897h46v-897h147v1012h-266l-515 -862l-509 862h-267v-1012z" />
<glyph unicode="&#x43d;" d="M119 0v1012h147v-414h979v414h147v-1012h-147v475h-979v-475h-147z" />
<glyph unicode="&#x43e;" horiz-adv-x="1466" d="M86 508q0 14 2 50t2 60q3 184 108.5 291t333.5 107h406q158 0 257 -53.5t141 -142t44 -202.5v-220q-2 -114 -46 -204t-142.5 -144t-253.5 -54h-406q-436 0 -442 402q0 24 -2 59.5t-2 50.5zM238 398q0 -278 304 -279h386q306 1 305 279v220q0 132 -78.5 203.5t-226.5 71.5 h-386q-102 0 -168 -28t-100 -88.5t-36 -158.5v-220z" />
<glyph unicode="&#x43f;" d="M119 0v1012h1273v-1012h-147v889h-979v-889h-147z" />
<glyph unicode="&#x440;" horiz-adv-x="1466" d="M106 -414v1426h148v-111q18 28 83 69.5t199 41.5h13h397q153 0 248.5 -53t137.5 -142t44 -203v-221q-3 -120 -48 -209t-140.5 -138.5t-241.5 -49.5h-397q-141 0 -209 43t-86 71v-524h-148zM246 504q0 -12 2 -49t2 -62q0 -120 79 -197t234 -77h330q168 0 252 65t84 209 v221q0 274 -336 275h-328q-156 0 -235.5 -76t-79.5 -199q0 -24 -2 -61t-2 -49z" />
<glyph unicode="&#x441;" horiz-adv-x="1466" d="M86 372v254q0 111 47 199.5t141.5 139.5t233.5 51h442l4 -4q174 0 269 -64t124 -139.5t29 -132.5v-16h-147v12q0 74 -56.5 147.5t-222.5 73.5h-442q-132 0 -203 -66.5t-71 -200.5v-254q0 -118 76 -186q76 -67 188 -67h450q114 0 177 39.5t83.5 88.5t20.5 89v20h147v-16 q0 -110 -84 -227q-86 -117 -342 -117h-454q-206 0 -308 100t-102 276z" />
<glyph unicode="&#x442;" horiz-adv-x="1368" d="M51 889v123h701h552v-123h-552v-889h-148v889h-553z" />
<glyph unicode="&#x443;" horiz-adv-x="1206" d="M4 1012h154l470 -868h30l372 868h154l-508 -1145q-50 -112 -98 -175t-123 -94.5t-197 -31.5h-49v122h86q81 0 132 36t84.5 96t84.5 180h-37z" />
<glyph unicode="&#x444;" horiz-adv-x="2191" d="M110 391v223q27 398 435 398h182h13q95 0 157 -24.5t89.5 -49.5t35.5 -37v512h148v-512q18 28 83 69.5t199 41.5h12h182q408 0 435 -398v-223q-11 -186 -115 -290.5t-320 -104.5h-182q-141 0 -209 43q-67 43 -85 71v-524h-148v524q-18 -28 -86 -71t-209 -43h-182 q-411 0 -435 395zM258 396q0 -144 86.5 -210.5t255.5 -66.5h104q157 0 240 78q82 79 82 199q0 25 2 61.5t2 48.5t-2 49t-2 61q0 79 -34 141.5t-105 98t-177 35.5h-116q-336 -1 -336 -275v-220zM1161 504q0 -12 2.5 -46t2.5 -65q0 -120 80 -197t237 -77h115q168 0 252 65 t84 209v221q0 274 -336 275h-118q-156 0 -235 -76t-79 -199q0 -30 -2.5 -64t-2.5 -46z" />
<glyph unicode="&#x445;" horiz-adv-x="1304" d="M12 0l545 549l-467 463h180l382 -373l372 373h180l-466 -463l548 -549h-184l-455 454l-459 -454h-176z" />
<glyph unicode="&#x446;" horiz-adv-x="1569" d="M119 0v1012h147v-889h979v889h147v-889h122v-508h-144v385h-1251z" />
<glyph unicode="&#x447;" horiz-adv-x="1401" d="M94 798v216h148v-228q0 -130 77 -196t217 -66h324q78 0 145.5 28t108.5 85t41 137v240h147v-1012h-147v522q-10 -21 -49.5 -51t-103.5 -52.5t-142 -22.5h-324q-442 0 -442 400z" />
<glyph unicode="&#x448;" horiz-adv-x="2228" d="M98 0v1012h148v-889h788v889h148v-889h788v889h148v-1012h-2020z" />
<glyph unicode="&#x449;" horiz-adv-x="2269" d="M98 0v1012h148v-889h788v889h148v-889h788v889h148v-889h118v-508h-141v385h-1997z" />
<glyph unicode="&#x44a;" horiz-adv-x="1634" d="M18 889h291v-889h913q340 0 340 258v123q0 110 -78 173.5t-237 63.5h-786v394h-443v-123zM461 123v373h733q131 0 176 -35.5t45 -112.5v-74q0 -74 -48.5 -112.5t-174.5 -38.5h-731z" />
<glyph unicode="&#x44b;" horiz-adv-x="1861" d="M112 0h914q340 0 340 258v123q0 110 -78 173.5t-238 63.5h-786v394h-152v-1012zM264 123v373h734q131 0 175.5 -35.5t44.5 -112.5v-74q0 -74 -48 -112.5t-174 -38.5h-732zM1592 0v1012h147v-1012h-147z" />
<glyph unicode="&#x44c;" horiz-adv-x="1437" d="M112 0h914q340 0 340 258v123q0 110 -78 173.5t-238 63.5h-786v394h-152v-1012zM264 123v373h734q131 0 175.5 -35.5t44.5 -112.5v-74q0 -74 -48 -112.5t-174 -38.5h-732z" />
<glyph unicode="&#x44d;" horiz-adv-x="1466" d="M86 340v16h148v-20q0 -73 58 -145t222 -72h450q72 0 133 30t96.5 87.5t35.5 135.5v99h-865v123h865v32q0 134 -71.5 200.5t-203.5 66.5h-442q-166 0 -222 -74q-56 -73 -56 -147v-12h-148v16q0 57 29 132.5t124 139.5t269 64l4 4h442q138 0 233.5 -51t142 -139t46.5 -200 v-254q0 -178 -102 -277t-308 -99h-454q-256 0 -341 117t-85 227z" />
<glyph unicode="&#x44e;" horiz-adv-x="1843" d="M90 4v1012h148v-414h176h55v16q3 184 108 291t333 107h405q158 0 256.5 -53.5t140.5 -142t45 -202.5v-220q-2 -114 -46 -204t-142.5 -144t-253.5 -54h-405q-434 0 -441 402v81h-55h-176v-475h-148zM614 398q0 -278 306 -279h382q144 0 226 68q82 69 82 211v220 q0 132 -80 204q-82 71 -228 71h-382q-102 0 -169 -28t-101 -88.5t-36 -158.5v-220z" />
<glyph unicode="&#x44f;" horiz-adv-x="1444" d="M-41 0h209l410 393h569v-393h151v1012h-911q-340 0 -340 -258v-123q0 -110 77.5 -174t237.5 -64h44zM194 664v74q0 74 49 112.5t175 38.5h729v-373h-731q-130 0 -176 36t-46 112z" />
<glyph unicode="&#x2000;" horiz-adv-x="906" />
<glyph unicode="&#x2001;" horiz-adv-x="1812" />
<glyph unicode="&#x2002;" horiz-adv-x="906" />
<glyph unicode="&#x2003;" horiz-adv-x="1812" />
<glyph unicode="&#x2004;" horiz-adv-x="604" />
<glyph unicode="&#x2005;" horiz-adv-x="453" />
<glyph unicode="&#x2006;" horiz-adv-x="302" />
<glyph unicode="&#x2007;" horiz-adv-x="302" />
<glyph unicode="&#x2008;" horiz-adv-x="226" />
<glyph unicode="&#x2009;" horiz-adv-x="362" />
<glyph unicode="&#x200a;" horiz-adv-x="100" />
<glyph unicode="&#x2010;" horiz-adv-x="889" d="M110 520v152h652v-152h-652z" />
<glyph unicode="&#x2011;" horiz-adv-x="889" d="M110 520v152h652v-152h-652z" />
<glyph unicode="&#x2012;" horiz-adv-x="889" d="M110 520v152h652v-152h-652z" />
<glyph unicode="&#x2013;" horiz-adv-x="1179" d="M110 524v148h938v-148h-938z" />
<glyph unicode="&#x2014;" horiz-adv-x="1958" d="M192 524v148h1561v-148h-1561z" />
<glyph unicode="&#x2018;" horiz-adv-x="381" d="M114 1110v262q0 74 58 111h78q-58 -44 -58 -111v-102h82v-160h-160z" />
<glyph unicode="&#x2019;" horiz-adv-x="381" d="M114 1262v160h160v-267q0 -69 -57 -111h-77q60 46 60 111v107h-86z" />
<glyph unicode="&#x201a;" horiz-adv-x="387" d="M123 0v160h159v-266q0 -68 -56 -111h-78q58 45 57 111v106h-82z" />
<glyph unicode="&#x201c;" horiz-adv-x="712" d="M119 1118v262q0 72 57 115h78q-58 -43 -58 -115v-102h82v-160h-159zM450 1118v262q0 72 58 115h74q-58 -49 -58 -115v-102h86v-160h-160z" />
<glyph unicode="&#x201d;" horiz-adv-x="733" d="M123 1262v160h159v-267q0 -69 -56 -111h-78q58 44 57 111v107h-82zM450 1262v160h160v-267q0 -73 -57 -111h-78q61 40 61 111v107h-86z" />
<glyph unicode="&#x201e;" horiz-adv-x="733" d="M123 0v160h159v-266q0 -68 -56 -111h-78q58 45 57 111v106h-82zM450 0v160h160v-266q0 -72 -57 -111h-78q61 41 61 111v106h-86z" />
<glyph unicode="&#x2022;" horiz-adv-x="979" d="M144 570q0 84 41 161t120 125.5t187 48.5q105 0 180 -46t114 -121q38 -74 38 -160q0 -85 -39 -161t-115 -123q-74 -48 -178 -48q-110 0 -189 45.5t-119 119t-40 159.5z" />
<glyph unicode="&#x2026;" horiz-adv-x="954" d="M123 0v160h159v-160h-159zM404 0v160h159v-160h-159zM684 0v160h160v-160h-160z" />
<glyph unicode="&#x202f;" horiz-adv-x="362" />
<glyph unicode="&#x2039;" horiz-adv-x="698" d="M106 570l422 421l66 -69l-352 -352l348 -344l-70 -70z" />
<glyph unicode="&#x203a;" horiz-adv-x="694" d="M100 926l70 65l422 -421l-414 -410l-66 66l344 344z" />
<glyph unicode="&#x205f;" horiz-adv-x="453" />
<glyph unicode="&#x2122;" horiz-adv-x="819" d="M102 1548v27h254v-27h-112v-332h-27v332h-115zM346 1220l80 359l112 -303l118 303l75 -359h-29l-53 269l-111 -287l-108 287l-58 -269h-26z" />
<glyph unicode="&#x25fc;" horiz-adv-x="1012" d="M0 0v1012h1012v-1012h-1012z" />
</font>
</defs>
</svg>
