<?xml version="1.0" standalone="no"?>
<!DOCTYPE svg PUBLIC "-//W3C//DTD SVG 1.1//EN" "http://www.w3.org/Graphics/SVG/1.1/DTD/svg11.dtd" >
<svg xmlns="http://www.w3.org/2000/svg" xmlns:xlink="http://www.w3.org/1999/xlink" version="1.1">
<metadata>
Created by FontForge 20150318 at Wed Mar 25 06:59:36 2015
 By uniteet7
Copyright (C) 1993; Type Market Ltd. Moscow, 119136, Box 20; phone:(095)1427712; Created by A.Kustov
</metadata>
<defs>
<font id="file_5272" horiz-adv-x="716" >
  <font-face 
    font-family="file_5272"
    font-weight="400"
    font-stretch="normal"
    units-per-em="1000"
    panose-1="0 0 0 0 0 0 0 0 0 0"
    ascent="800"
    descent="-200"
    x-height="494"
    cap-height="694"
    bbox="-20 -212 1613 885"
    underline-thickness="50"
    underline-position="-105"
    unicode-range="U+0020-2122"
  />
<missing-glyph horiz-adv-x="788" 
d="M49 0v788h690v-788h-690zM690 49v690h-592v-690h592z" />
    <glyph glyph-name=".notdef" horiz-adv-x="788" 
d="M49 0v788h690v-788h-690zM690 49v690h-592v-690h592z" />
    <glyph glyph-name=".null" horiz-adv-x="0" 
 />
    <glyph glyph-name="nonmarkingreturn" horiz-adv-x="318" 
 />
    <glyph glyph-name="space" unicode=" " horiz-adv-x="318" 
 />
    <glyph glyph-name="exclam" unicode="!" horiz-adv-x="196" 
d="M140 168h-78v526h78v-526zM62 0v78h78v-78h-78z" />
    <glyph glyph-name="quotedbl" unicode="&#x22;" horiz-adv-x="338" 
d="M206 708h56l-12 -172h-32zM72 708h56l-10 -172h-34z" />
    <glyph glyph-name="numbersign" unicode="#" horiz-adv-x="640" 
d="M255 607h56l-34 -130h148l34 130h54l-32 -130h130l-14 -56h-132l-30 -124h130l-14 -56h-130l-34 -136h-54l34 136h-148l-34 -136h-54l34 136h-136l12 56h138l30 124h-136l16 56h134zM410 421h-150l-30 -124h148z" />
    <glyph glyph-name="dollar" unicode="$" horiz-adv-x="902" 
d="M412 628h-173q-58 0 -85 -27q-32 -31 -32 -103q0 -56 31 -82t86 -26h173v238zM484 70h164q72 0 103 35q27 31 27 95q0 67 -22 91q-27 29 -108 29h-164v-250zM412 320h-160q-113 0 -161 48q-41 41 -41 128q0 93 49 145q54 57 157 57h156v62h72v-62h128q126 0 182 -46
t56 -148h-72q0 63 -34 91q-39 33 -135 33h-125v-238h151q120 0 167.5 -44t47.5 -146q0 -92 -38 -139q-49 -61 -169 -61h-159v-90h-72v90h-153q-99 0 -152 46q-57 50 -57 148h72q0 -62 31 -93t101 -31h158v250z" />
    <glyph glyph-name="percent" unicode="%" horiz-adv-x="1150" 
d="M454 536q0 56 -20 76t-76 20h-148q-60 0 -80 -19t-20 -77v-116q0 -52 22 -74t78 -22h148q53 0 74.5 21.5t21.5 74.5v116zM516 414q0 -81 -35.5 -115.5t-116.5 -34.5h-162q-85 0 -119.5 34.5t-34.5 115.5v128q0 85 33.5 117.5t121.5 32.5h161q80 0 114 -31q38 -35 38 -119
v-128zM712 728l-206 -762h-58l204 762h60zM1050 272q0 56 -20 76t-76 20h-148q-60 0 -80 -19t-20 -77v-116q0 -52 22 -74t78 -22h148q53 0 74.5 21.5t21.5 74.5v116zM1112 150q0 -81 -35.5 -115.5t-116.5 -34.5h-162q-85 0 -119.5 34.5t-34.5 115.5v128q0 85 33.5 117.5
t121.5 32.5h161q80 0 114 -31q38 -35 38 -119v-128z" />
    <glyph glyph-name="ampersand" unicode="&#x26;" horiz-adv-x="988" 
d="M794 44q-19 -15 -36 -22q-52 -22 -134 -22h-330q-107 0 -172 57q-72 64 -72 183q0 112 76 163q25 17 76 29q-11 8 -16 16q-16 26 -16 74q0 91 70 134q61 38 172 38h210q113 0 173.5 -51t60.5 -149h-72q0 65 -42.5 96.5t-119.5 31.5h-220q-77 0 -118.5 -28t-41.5 -79
q0 -39 26 -63q8 -7 26 -16l496 -296q27 28 40 47q40 57 40 107h72q0 -59 -28 -112q-20 -39 -60 -84l68 -40l-44 -66zM260 370q-46 -6 -69 -16q-69 -32 -69 -114q0 -79 40.5 -123.5t121.5 -44.5h348q32 0 62 10q10 3 24 10z" />
    <glyph glyph-name="quotesingle" unicode="'" horiz-adv-x="208" 
d="M72 708h56l-10 -172h-34z" />
    <glyph glyph-name="parenleft" unicode="(" horiz-adv-x="316" 
d="M288 755v-78q-176 0 -176 -173v-372q0 -100 43 -138q39 -34 133 -34v-77q-125 0 -187 57q-67 62 -67 194v370q0 120 69.5 185.5t184.5 65.5z" />
    <glyph glyph-name="parenright" unicode=")" horiz-adv-x="316" 
d="M28 677v78q113 0 182.5 -65.5t69.5 -185.5v-370q0 -133 -66 -194q-61 -57 -186 -57v77q95 0 132 33q42 38 42 139v372q0 173 -174 173z" />
    <glyph glyph-name="asterisk" unicode="*" horiz-adv-x="348" 
d="M188 548q16 -4 26 -6q29 -6 62 -12q19 -3 27.5 -14t8.5 -26q0 -14 -9 -25t-23 -11q-19 0 -36 20l-62 66l22 -82l6 -24q0 -17 -10.5 -28.5t-25.5 -11.5q-13 0 -23.5 10.5t-10.5 27.5l4 20l27 84l-61 -66q-17 -20 -36 -20q-14 0 -25 12t-11 24q0 26 37 37.5t55.5 16
t34.5 8.5l-87 18q-19 4 -29.5 14t-10.5 22q0 13 10.5 24.5t23.5 11.5q18 0 35.5 -18t52.5 -52q5 -4 12 -12l-28 86q-4 12 -4 16q0 17 11.5 28.5t24.5 11.5t23.5 -10.5t10.5 -27.5l-2 -18q-7 -30 -17 -60q-3 -10 -9 -26q6 7 10 12q29 35 48 56q15 16 34 16q13 0 24.5 -10.5
t11.5 -23.5q0 -12 -9 -22t-30.5 -14.5t-56.5 -14.5q-10 -2 -26 -7z" />
    <glyph glyph-name="plus" unicode="+" horiz-adv-x="468" 
d="M54 326h144v144h66v-144h146v-66h-146v-146h-66v146h-144v66z" />
    <glyph glyph-name="comma" unicode="," horiz-adv-x="186" 
d="M60 0v78h78v-130q0 -36 -28 -54h-38q13 10 20.5 23t7.5 31v52h-40z" />
    <glyph glyph-name="hyphen" unicode="-" horiz-adv-x="434" 
d="M54 326h318v-66h-318v66z" />
    <glyph glyph-name="period" unicode="." horiz-adv-x="186" 
d="M60 0v78h78v-78h-78z" />
    <glyph glyph-name="slash" unicode="/" horiz-adv-x="316" 
d="M308 728l-222 -818h-78l222 818h78z" />
    <glyph glyph-name="zero" unicode="0" horiz-adv-x="912" 
d="M792 460q0 102 -37 137t-142 35h-304q-101 0 -143 -36.5t-42 -135.5v-222q0 -99 40 -133.5t145 -34.5h304q109 0 144 33t35 135v222zM864 238q0 -144 -56 -193q-51 -45 -194 -45h-304q-142 0 -200 52.5t-58 185.5v216q0 136 56 192t202 56h304q134 0 188 -48
q62 -55 62 -200v-216z" />
    <glyph glyph-name="one" unicode="1" horiz-adv-x="868" 
d="M524 0h-78v622l-188 -184l-50 48l206 208h110v-694z" />
    <glyph glyph-name="two" unicode="2" horiz-adv-x="868" 
d="M810 70v-70h-756v130q0 95 61 146q65 54 195 54h250q102 0 140 30t38 108q0 94 -34 127q-38 37 -145 37h-250q-97 0 -136 -32q-35 -29 -35 -92h-78q0 99 61.5 146.5t188.5 47.5h250q145 0 197.5 -49.5t52.5 -184.5q0 -115 -48 -159q-54 -49 -203 -49h-250q-98 0 -144 -39
q-39 -33 -39 -91v-60h684z" />
    <glyph glyph-name="three" unicode="3" horiz-adv-x="868" 
d="M361 324v70h215q80 0 114 22q40 26 40 94q0 53 -39 83.5t-116 30.5h-267q-76 0 -119 -33t-43 -97h-74q0 97 59.5 148.5t176.5 51.5h252q109 0 167 -32q75 -42 75 -140q0 -92 -49 -135q-16 -14 -49 -25q38 -3 66 -40q32 -42 32 -118q0 -114 -70 -163q-59 -41 -172 -41
h-251q-122 0 -179.5 47.5t-57.5 148.5h72q0 -66 47 -98q42 -28 118 -28h267q85 0 119.5 29t34.5 105q0 78 -38 102q-29 18 -116 18h-215z" />
    <glyph glyph-name="four" unicode="4" horiz-adv-x="868" 
d="M718 694v-474h93v-70h-93v-150h-72v150h-580v72l574 472h78zM646 220v392l-475 -392h475z" />
    <glyph glyph-name="five" unicode="5" horiz-adv-x="868" 
d="M808 224q0 -119 -60.5 -171.5t-196.5 -52.5h-249q-252 0 -252 196h72q0 -64 40.5 -95t139.5 -31h247q106 0 146.5 35.5t40.5 118.5q0 80 -41 117q-45 40 -146 40h-306q-50 0 -73 -12.5t-36 -48.5h-72v374h729v-70h-657v-225q11 19 34 33q31 19 67 19h314q137 0 198 -54
t61 -173z" />
    <glyph glyph-name="six" unicode="6" horiz-adv-x="868" 
d="M810 504h-72q0 62 -38 93q-43 35 -141 35h-250q-96 0 -137.5 -33t-41.5 -101v-161q18 28 47 44q47 26 125 26h256q138 0 197 -42.5t59 -137.5v-31q0 -105 -61 -155.5t-199 -50.5h-241q-134 0 -194.5 50.5t-60.5 149.5v308q0 104 59.5 154t192.5 50h248q252 0 252 -198z
M558 337h-244q-115 0 -154 -35q-30 -27 -30 -95q0 -88 51 -120q43 -27 128 -27h250q103 0 146 32q37 28 37 84v25q0 67 -32 97q-42 39 -152 39z" />
    <glyph glyph-name="seven" unicode="7" horiz-adv-x="868" 
d="M22 694h827v-67l-625 -627h-101l623 624h-724v70z" />
    <glyph glyph-name="eight" unicode="8" horiz-adv-x="868" 
d="M314 322q-99 0 -143 -38q-37 -32 -37 -94q0 -63 41 -96.5t139 -33.5h255q101 0 143 36q36 31 36 96q0 69 -34 97q-40 33 -145 33h-255zM314 632q-96 0 -134 -34q-32 -29 -32 -93q0 -59 32 -84q37 -29 134 -29h255q99 0 133 25.5t34 87.5q0 65 -38.5 96t-128.5 31h-255z
M570 702q130 0 184 -48.5t54 -155.5q0 -70 -34 -105q-29 -30 -86 -37q57 -9 92 -48q40 -44 40 -116q0 -202 -250 -202h-256q-130 0 -191 49t-61 151q0 77 43 120q33 32 91 46q-51 0 -83 33q-37 38 -37 109q0 106 55 155t183 49h256z" />
    <glyph glyph-name="nine" unicode="9" horiz-adv-x="868" 
d="M63 188h72q0 -60 40.5 -89t139.5 -29h249q101 0 140 28t39 96v161q-18 -28 -47 -44q-47 -26 -125 -26h-256q-137 0 -197 43.5t-60 137.5v30q0 106 61 156t200 50h241q134 0 196 -52q59 -49 59 -148v-308q0 -103 -58.5 -148.5t-193.5 -45.5h-247q-129 0 -189 43
q-64 46 -64 145zM560 632h-245q-110 0 -152 -38q-33 -30 -33 -97v-26q0 -56 37 -83q45 -33 147 -33h250q110 0 149 42q30 32 30 105q0 65 -40 96q-44 34 -143 34z" />
    <glyph glyph-name="colon" unicode=":" horiz-adv-x="186" 
d="M60 364v78h78v-78h-78zM60 0v78h78v-78h-78z" />
    <glyph glyph-name="semicolon" unicode=";" horiz-adv-x="186" 
d="M60 364v78h78v-78h-78zM60 0v78h78v-130q0 -36 -28 -54h-38q13 10 20.5 23t7.5 31v52h-40z" />
    <glyph glyph-name="less" unicode="&#x3c;" horiz-adv-x="370" 
d="M32 306l286 194v-78l-170 -116l170 -112v-76z" />
    <glyph glyph-name="equal" unicode="=" horiz-adv-x="434" 
d="M54 243h318v-66h-318v66zM54 409h318v-66h-318v66z" />
    <glyph glyph-name="greater" unicode="&#x3e;" horiz-adv-x="370" 
d="M338 306l-286 -188v76l170 112l-170 116v78z" />
    <glyph glyph-name="question" unicode="?" horiz-adv-x="880" 
d="M334 0v78h78v-78h-78zM412 168h-78v68q0 77 44.5 114.5t133.5 37.5q119 0 168 19q66 25 66 97q0 74 -36 101t-141 27h-273q-97 0 -137 -34q-36 -30 -36 -94h-79q0 99 62.5 148.5t183.5 49.5h278q140 0 198 -46t58 -152q0 -108 -80 -150q-69 -36 -232 -36
q-55 0 -77.5 -21.5t-22.5 -68.5v-60z" />
    <glyph glyph-name="at" unicode="@" horiz-adv-x="652" 
d="M318 530q-51 0 -81.5 -35.5t-30.5 -80.5q0 -41 24.5 -69.5t69.5 -28.5q51 0 79.5 33.5t28.5 78.5q0 42 -22 70q-25 32 -68 32zM328 678q-119 0 -189 -78q-63 -70 -63 -170q0 -99 63 -169q70 -77 189 -77q50 0 98 17t66 41l22 -28q-19 -22 -73.5 -43t-116.5 -21
q-134 0 -214 87q-72 79 -72 191q0 114 73 194q82 90 217 90q105 0 184 -61q100 -77 100 -219q0 -62 -24 -100q-31 -50 -96 -50q-38 0 -55 25q-10 15 -15 44q-9 -32 -43.5 -50.5t-80.5 -18.5q-61 0 -95.5 38.5t-34.5 91.5q0 59 39 103q43 49 113 49q58 0 91 -37
q11 -20 23 -39l12 70h32l-21 -163l-3 -25q0 -23 9 -38.5t31 -15.5q41 0 64 39q20 33 20 81q0 115 -80 182q-71 60 -170 60z" />
    <glyph glyph-name="A" unicode="A" horiz-adv-x="846" 
d="M88 0h-80l360 694h110l360 -694h-84l-89 174h-488zM216 244h412l-206 400z" />
    <glyph glyph-name="B" unicode="B" horiz-adv-x="890" 
d="M134 624v-226h472q74 0 106 22q36 25 36 88q0 58 -33.5 87t-108.5 29h-472zM62 0v694h516q242 0 242 -178q0 -71 -31 -111q-22 -29 -56 -39q22 -5 43 -20q64 -46 64 -142q0 -112 -62 -160q-57 -44 -182 -44h-534zM134 328v-258h490q72 0 108 32t36 102q0 66 -38 95
t-112 29h-484z" />
    <glyph glyph-name="C" unicode="C" horiz-adv-x="912" 
d="M782 198h72q0 -100 -58.5 -149t-193.5 -49h-304q-139 0 -197.5 56.5t-58.5 191.5v200q0 138 58 196t198 58h304q252 0 252 -198h-72q0 63 -37 93q-43 35 -142 35h-304q-106 0 -145.5 -38.5t-39.5 -145.5v-200q0 -103 39.5 -140.5t145.5 -37.5h304q97 0 138 30.5t41 97.5z
" />
    <glyph glyph-name="D" unicode="D" horiz-adv-x="902" 
d="M140 70h470q105 0 139 43q29 37 29 145v184q0 106 -34 144t-135 38h-469v-554zM68 694h536q140 0 193 -53t53 -199v-184q0 -138 -51 -196q-55 -62 -195 -62h-536v694z" />
    <glyph glyph-name="E" unicode="E" horiz-adv-x="738" 
d="M60 0v694h615v-70h-543v-230h529v-70h-529v-254h543v-70h-615z" />
    <glyph glyph-name="F" unicode="F" horiz-adv-x="738" 
d="M60 694h615v-70h-543v-230h529v-70h-529v-324h-72v694z" />
    <glyph glyph-name="G" unicode="G" horiz-adv-x="902" 
d="M445 330h416v-54q0 -162 -51 -219t-200 -57h-306q-143 0 -199.5 54.5t-56.5 183.5v210q0 138 58 196t198 58h306q124 0 187.5 -50.5t63.5 -147.5h-75q0 63 -37 93q-43 35 -140 35h-306q-107 0 -145 -39t-38 -145v-210q0 -97 39.5 -132.5t143.5 -35.5h306q102 0 137 30
q40 34 40 137v23h-341v70z" />
    <glyph glyph-name="H" unicode="H" horiz-adv-x="880" 
d="M140 323v-323h-72v694h72v-301h616v301h72v-694h-72v323h-616z" />
    <glyph glyph-name="I" unicode="I" horiz-adv-x="282" 
d="M174 694v-694h-72v694h72z" />
    <glyph glyph-name="J" unicode="J" horiz-adv-x="782" 
d="M38 232h72v-34q0 -64 39 -94q44 -34 145 -34h187q98 0 140.5 33.5t42.5 108.5v482h72v-446q0 -133 -52 -188q-57 -60 -202 -60h-188q-134 0 -195 46.5t-61 133.5v52z" />
    <glyph glyph-name="K" unicode="K" horiz-adv-x="827" 
d="M122 327v-327h-72v694h72v-297h116l439 297h126l-490 -331l502 -363h-126l-448 327h-119z" />
    <glyph glyph-name="L" unicode="L" 
d="M140 694v-624h523v-70h-595v694h72z" />
    <glyph glyph-name="M" unicode="M" horiz-adv-x="1128" 
d="M58 694h154l352 -592l350 592h154v-694h-72v638h-40l-374 -638h-37l-374 638h-41v-638h-72v694z" />
    <glyph glyph-name="N" unicode="N" horiz-adv-x="880" 
d="M58 694h160l534 -622v622h72v-694h-104l-550 640h-40v-640h-72v694z" />
    <glyph glyph-name="O" unicode="O" horiz-adv-x="912" 
d="M792 460q0 102 -37 137t-142 35h-304q-101 0 -143 -36.5t-42 -135.5v-222q0 -99 40 -133.5t145 -34.5h304q109 0 144 33t35 135v222zM864 238q0 -144 -56 -193q-51 -45 -194 -45h-304q-142 0 -200 52.5t-58 185.5v216q0 136 56 192t202 56h304q134 0 188 -48
q62 -55 62 -200v-216z" />
    <glyph glyph-name="P" unicode="P" horiz-adv-x="814" 
d="M134 287v-287h-72v694h468q130 0 187 -49t57 -165q0 -113 -54.5 -153t-188.5 -40h-397zM134 624v-267h425q81 0 110 24q33 27 33 106q0 77 -33 107t-117 30h-418z" />
    <glyph glyph-name="Q" unicode="Q" horiz-adv-x="912" 
d="M482 242l44 58l252 -164q7 18 10.5 45.5t3.5 56.5v216q0 114 -38 148q-33 30 -141 30h-304q-107 0 -147 -39t-40 -139v-216q0 -97 40.5 -132.5t146.5 -35.5h302q44 0 72.5 4.5t40.5 11.5zM842 98l56 -38l-40 -60l-58 40q-28 -22 -69 -31t-117 -9h-306q-136 0 -194 49
q-64 54 -64 189v216q0 135 55.5 191.5t203.5 56.5h304q132 0 187 -48q64 -56 64 -200v-216q0 -45 -5 -78t-17 -62z" />
    <glyph glyph-name="R" unicode="R" horiz-adv-x="860" 
d="M136 624v-268h450q72 0 108 33q40 37 40 119q0 51 -38.5 83.5t-104.5 32.5h-455zM136 286v-286h-72v694h500q126 0 187 -56q55 -50 55 -143q0 -70 -31 -112q-20 -28 -67 -55q35 -8 60 -47q27 -45 27 -118v-163h-72v171q0 63 -26 89t-83 26h-478z" />
    <glyph glyph-name="S" unicode="S" horiz-adv-x="922" 
d="M54 498q0 104 54 150t172 46h350q236 0 236 -196h-72q0 61 -38 91q-44 35 -141 35h-334q-93 0 -126 -31q-29 -27 -29 -95q0 -60 32 -81q38 -25 146 -25h310q137 0 197.5 -44t60.5 -152q0 -104 -54 -150t-174 -46h-358q-107 0 -165 48q-61 51 -61 150h72q0 -62 37 -92
q44 -36 141 -36h328q82 0 122 30.5t40 97.5q0 68 -35.5 96t-131.5 28h-349q-134 0 -185 44q-45 39 -45 132z" />
    <glyph glyph-name="T" unicode="T" horiz-adv-x="792" 
d="M22 694h748v-70h-339v-624h-72v624h-337v70z" />
    <glyph glyph-name="U" unicode="U" horiz-adv-x="922" 
d="M60 694h72v-484q0 -74 38 -105q42 -35 148 -35h305q94 0 134.5 35.5t40.5 108.5v480h72v-454q0 -139 -63 -193q-55 -47 -185 -47h-304q-137 0 -195 49q-63 54 -63 189v456z" />
    <glyph glyph-name="V" unicode="V" horiz-adv-x="842" 
d="M746 694h84l-374 -694h-77l-372 694h84l320 -616h15z" />
    <glyph glyph-name="W" unicode="W" horiz-adv-x="1280" 
d="M592 694h82l242 -620h16l246 620h80l-284 -694h-102l-240 614l-238 -614h-102l-284 694h80l246 -620h16z" />
    <glyph glyph-name="X" unicode="X" horiz-adv-x="858" 
d="M706 694h96l-326 -326l368 -368h-96l-334 334l-334 -334h-96l368 368l-321 326h91l292 -294z" />
    <glyph glyph-name="Y" unicode="Y" horiz-adv-x="804" 
d="M707 694h95l-365 -363v-331h-72v332l-365 362h95l306 -306z" />
    <glyph glyph-name="Z" unicode="Z" horiz-adv-x="792" 
d="M48 694h677v-54l-562 -570h577v-70h-692v56l566 568h-566v70z" />
    <glyph glyph-name="bracketleft" unicode="[" horiz-adv-x="262" 
d="M64 762h140v-38h-72v-798h77v-38h-145v874z" />
    <glyph glyph-name="backslash" unicode="\" horiz-adv-x="316" 
d="M14 728h78l222 -818h-76z" />
    <glyph glyph-name="bracketright" unicode="]" horiz-adv-x="262" 
d="M194 762v-874h-145v39h77v797h-72v38h140z" />
    <glyph glyph-name="asciicircum" unicode="^" horiz-adv-x="392" 
d="M28 528l146 140h40l146 -140h-32l-134 98l-134 -98h-32z" />
    <glyph glyph-name="underscore" unicode="_" horiz-adv-x="392" 
d="M2 -2h388v-38h-388v38z" />
    <glyph glyph-name="grave" unicode="`" horiz-adv-x="282" 
d="M78 728l154 -136l-28 -24l-168 112z" />
    <glyph glyph-name="a" unicode="a" horiz-adv-x="711" 
d="M48 186q0 53 36 83q40 33 118 33h288q41 0 65 -12q15 -7 27 -27v69q0 46 -28 72q-32 30 -94 30h-191q-78 0 -104 -24q-18 -17 -18 -58h-74q0 63 25 93q41 49 153 49h217q97 0 143 -46q43 -43 43 -128v-320h-72v40q-12 -14 -21 -20q-29 -20 -67 -20h-280q-82 0 -124 30.5
t-42 95.5v60zM228 242q-65 0 -86.5 -16.5t-21.5 -55.5v-36q0 -36 21 -53q26 -21 87 -21h244q110 0 110 92q0 46 -28 68t-82 22h-244z" />
    <glyph glyph-name="b" unicode="b" horiz-adv-x="728" 
d="M52 694h72v-253q16 24 54 39.5t90 15.5h194q104 0 157 -51t53 -143v-108q0 -93 -51.5 -143.5t-156.5 -50.5h-196q-48 0 -86 15t-58 38v-53h-72v694zM124 195q0 -60 38.5 -97.5t115.5 -37.5h158q86 0 125 32t39 102v108q0 64 -40.5 99t-123.5 35h-160q-76 0 -116 -38
q-36 -34 -36 -95v-108z" />
    <glyph glyph-name="c" unicode="c" 
d="M600 174h72q0 -60 -30 -102q-52 -72 -178 -72h-222q-101 0 -150.5 47.5t-49.5 134.5v124q0 85 50 135q54 55 156 55h216q124 0 176 -72q32 -44 32 -102h-72q0 55 -36.5 84.5t-99.5 29.5h-216q-64 0 -99 -33t-35 -97v-124q0 -58 37 -90t93 -32h219q81 0 115 43
q22 28 22 71z" />
    <glyph glyph-name="d" unicode="d" horiz-adv-x="728" 
d="M668 0h-72v48q-21 -16 -37 -24q-49 -24 -106 -24h-195q-106 0 -158 47t-52 148v109q0 88 51 138q55 54 159 54h194q64 0 108 -25q26 -15 36 -30v253h72v-694zM596 195v108q0 60 -37 95q-40 38 -117 38h-160q-85 0 -123.5 -33.5t-38.5 -100.5v-108q0 -69 39.5 -101.5
t122.5 -32.5h160q77 0 115.5 37.5t38.5 97.5z" />
    <glyph glyph-name="e" unicode="e" horiz-adv-x="728" 
d="M608 302q0 62 -35 98t-98 36h-226q-57 0 -92 -36t-35 -98h486zM680 242h-558v-48q0 -72 39 -105q34 -29 98 -29h234q57 0 86 27t29 71h72q0 -65 -36 -106q-45 -52 -139 -52h-243q-212 0 -212 184v130q0 73 54 125q59 57 156 57h208q102 0 159 -52q53 -48 53 -122v-80z
" />
    <glyph glyph-name="f" unicode="f" horiz-adv-x="392" 
d="M80 438h-62v60h62q0 111 35.5 153.5t123.5 42.5h123v-60h-104q-57 0 -79 -23q-27 -29 -27 -113h212v-60h-212v-438h-72v438z" />
    <glyph glyph-name="g" unicode="g" horiz-adv-x="738" 
d="M608 494h72v-546q0 -74 -46 -114q-53 -46 -164 -46h-200q-86 0 -138 36t-52 96h78q0 -29 30.5 -50.5t88.5 -21.5h188q69 0 106 27.5t37 66.5v116q-8 -19 -39 -36q-41 -22 -99 -22h-206q-208 0 -208 182v126q0 90 50 138t152 48h208q50 0 88.5 -15t53.5 -38v53zM608 194
v109q0 60 -36 94q-39 37 -116 37h-164q-89 0 -126.5 -31.5t-37.5 -100.5v-108q0 -70 40 -102t124 -32h164q75 0 113.5 37t38.5 97z" />
    <glyph glyph-name="h" unicode="h" horiz-adv-x="728" 
d="M54 694h72v-270q20 34 44 47q41 23 100 23h192q110 0 165 -57q49 -51 49 -137v-300h-72v300q0 64 -39 99t-103 35h-192q-65 0 -104.5 -34.5t-39.5 -99.5v-300h-72v694z" />
    <glyph glyph-name="i" unicode="i" horiz-adv-x="228" 
d="M150 494v-494h-72v494h72zM78 694h72v-72h-72v72z" />
    <glyph glyph-name="j" unicode="j" horiz-adv-x="282" 
d="M110 494h72v-574q0 -62 -43.5 -97t-120.5 -35v72q53 0 74 24q18 20 18 60v550zM110 694h72v-72h-72v72z" />
    <glyph glyph-name="k" unicode="k" horiz-adv-x="620" 
d="M58 0v694h72v-388h82l256 188h116l-313 -221l338 -273h-104l-298 246h-77v-246h-72z" />
    <glyph glyph-name="l" unicode="l" horiz-adv-x="240" 
d="M90 0v694h72v-694h-72z" />
    <glyph glyph-name="m" unicode="m" horiz-adv-x="1127" 
d="M120 494v-75q16 33 57.5 54t100.5 21h98q89 0 137 -32q33 -22 53 -66q14 39 44 61q49 37 142 37h112q101 0 160 -51q56 -48 56 -121v-322h-72v308q0 60 -42 93t-120 33h-74q-83 0 -127.5 -33.5t-44.5 -102.5v-298h-72v300q0 66 -43.5 100t-116.5 34h-78q-85 0 -131 -43
q-39 -36 -39 -87v-304h-72v494h72z" />
    <glyph glyph-name="n" unicode="n" horiz-adv-x="738" 
d="M130 494v-79q14 36 51 57.5t93 21.5h190q114 0 169 -61q47 -52 47 -145v-288h-72v298q0 64 -39 100t-105 36h-190q-64 0 -104 -36t-40 -100v-298h-72v494h72z" />
    <glyph glyph-name="o" unicode="o" 
d="M44 302q0 88 49 138q55 56 167 56h198q115 0 169 -58q47 -50 47 -136v-108q0 -86 -48 -136q-56 -58 -169 -58h-197q-216 0 -216 194v108zM116 194q0 -134 149 -134h187q71 0 110.5 32t39.5 102v108q0 65 -38.5 99.5t-110.5 34.5h-188q-75 0 -112 -32t-37 -102v-108z" />
    <glyph glyph-name="p" unicode="p" 
d="M52 494h72v-53q15 22 52.5 37.5t85.5 15.5h200q111 0 164 -57q46 -50 46 -137v-108q0 -89 -49 -138q-54 -54 -161 -54h-194q-51 0 -90 15t-54 38v-255h-72v696zM124 300v-108q0 -60 35 -94q39 -38 116 -38h161q82 0 123 31t41 101v108q0 68 -42 101t-122 33h-160
q-77 0 -114.5 -36.5t-37.5 -97.5z" />
    <glyph glyph-name="q" unicode="q" horiz-adv-x="728" 
d="M602 494h72v-696h-72v249q-16 -20 -54.5 -33.5t-89.5 -13.5h-194q-210 0 -210 193v108q0 92 52.5 142.5t157.5 50.5h198q61 0 107 -27q15 -9 33 -27v54zM602 301q0 60 -37 95q-40 38 -115 38h-160q-84 0 -124 -30.5t-40 -103.5v-108q0 -69 41 -100.5t123 -31.5h160
q75 0 113.5 37.5t38.5 95.5v108z" />
    <glyph glyph-name="r" unicode="r" horiz-adv-x="681" 
d="M132 494v-63q12 28 46 45.5t86 17.5h140q125 0 177 -77q33 -49 33 -123h-72q0 49 -21 82q-37 58 -124 58h-128q-58 0 -97.5 -34.5t-39.5 -81.5v-318h-72v494h72z" />
    <glyph glyph-name="s" unicode="s" horiz-adv-x="728" 
d="M50 158h72v-28q0 -36 18 -50q25 -20 97 -20h253q112 0 112 68v22q0 70 -96 70h-288q-83 0 -125.5 30t-42.5 98v20q0 55 42 89q48 39 134 39h234q123 0 175 -40q39 -30 39 -82v-34h-72v32q0 23 -21 38q-36 26 -119 26h-248q-92 0 -92 -68v-20q0 -68 92 -68h288
q83 0 127.5 -32t44.5 -98v-22q0 -54 -44 -89q-49 -39 -137 -39h-275q-97 0 -137 37q-31 29 -31 85v36z" />
    <glyph glyph-name="t" unicode="t" horiz-adv-x="586" 
d="M76 592h72v-96h373v-60h-373v-260q0 -58 29 -87t77 -29h96q90 0 123 45q22 30 22 95h72q0 -80 -33 -127q-51 -73 -177 -73h-103q-85 0 -130 45q-48 48 -48 142v249h-62v60h62v96z" />
    <glyph glyph-name="u" unicode="u" horiz-adv-x="728" 
d="M54 494h72v-306q0 -63 37.5 -95.5t106.5 -32.5h194q59 0 99 30q45 34 45 92v312h72v-494h-72v60q-29 -33 -63.5 -46.5t-80.5 -13.5h-194q-111 0 -163.5 49.5t-52.5 144.5v300z" />
    <glyph glyph-name="v" unicode="v" horiz-adv-x="630" 
d="M548 494h80l-273 -494h-77l-273 494h80l224 -416h15z" />
    <glyph glyph-name="w" unicode="w" horiz-adv-x="907" 
d="M61 494l165 -416h17l161 416h88l161 -416h17l165 416h77l-201 -494h-94l-169 435l-169 -435h-94l-201 494h77z" />
    <glyph glyph-name="x" unicode="x" horiz-adv-x="637" 
d="M44 494h88l186 -182l182 182h88l-228 -226l268 -268h-90l-222 222l-224 -222h-86l266 268z" />
    <glyph glyph-name="y" unicode="y" horiz-adv-x="585" 
d="M2 494h75l230 -424h14l182 424h75l-248 -559q-36 -82 -72 -111q-45 -36 -132 -36h-24v60h42q49 0 79 30t68 122h-18z" />
    <glyph glyph-name="z" unicode="z" horiz-adv-x="630" 
d="M44 494h523v-54l-418 -380h424v-60h-533v56l420 378h-416v60z" />
    <glyph glyph-name="braceleft" unicode="{" horiz-adv-x="294" 
d="M248 696q-51 0 -73.5 -23.5t-22.5 -72.5v-194q0 -41 -30 -74q-10 -10 -30 -24q20 -17 30 -28q30 -35 30 -70v-194q0 -49 22.5 -71.5t73.5 -22.5v-56h-6q-69 0 -107.5 38.5t-38.5 111.5v194q0 30 -23 61q-19 26 -40 37q22 15 39 36q24 31 24 62v194q0 72 34 110
q38 42 118 42v-56z" />
    <glyph glyph-name="bar" unicode="|" horiz-adv-x="173" 
d="M58 740h56v-874h-56v874z" />
    <glyph glyph-name="braceright" unicode="}" horiz-adv-x="294" 
d="M48 696l-2 40l2 16q81 0 117 -41q33 -37 33 -111v-194q0 -30 26 -63q20 -26 39 -35q-29 -20 -45 -43q-20 -28 -20 -55v-194q0 -73 -38.5 -111.5t-107.5 -38.5h-4v56q94 0 94 94v194q0 33 30 69q10 11 30 29q-20 14 -30 24q-30 32 -30 74v194q0 49 -21 72.5t-73 23.5z" />
    <glyph glyph-name="asciitilde" unicode="~" horiz-adv-x="554" 
d="M150 346h-68q11 34 24 51q40 51 120 51q44 0 83 -27t65 -27q36 0 53 25q5 8 9 25h66q-10 -34 -22 -51q-37 -52 -112 -52q-41 0 -81 26.5t-81 26.5q-30 0 -46 -24q-5 -8 -10 -24z" />
    <glyph glyph-name="c144" horiz-adv-x="784" 
d="M422 581q20 0 58.5 25.5t85.5 25.5q38 0 74 -14q47 -18 62 -53q-35 -25 -55 -56q-25 -38 -25 -81q0 -45 27.5 -85t74.5 -55q-39 -91 -88 -143q-54 -57 -110 -57q-33 0 -74 34q-19 16 -38 16q-22 0 -48.5 -23.5t-57.5 -23.5q-76 0 -157 128q-77 121 -77 213q0 87 47 141
q51 59 142 59q46 0 78 -16q70 -35 81 -35zM525 771q10 0 10 -9q0 -43 -42 -92t-80 -49q-12 0 -12 17q0 46 42.5 89.5t81.5 43.5z" />
    <glyph glyph-name="c144" unicode="&#x452;" horiz-adv-x="784" 
d="M422 581q20 0 58.5 25.5t85.5 25.5q38 0 74 -14q47 -18 62 -53q-35 -25 -55 -56q-25 -38 -25 -81q0 -45 27.5 -85t74.5 -55q-39 -91 -88 -143q-54 -57 -110 -57q-33 0 -74 34q-19 16 -38 16q-22 0 -48.5 -23.5t-57.5 -23.5q-76 0 -157 128q-77 121 -77 213q0 87 47 141
q51 59 142 59q46 0 78 -16q70 -35 81 -35zM525 771q10 0 10 -9q0 -43 -42 -92t-80 -49q-12 0 -12 17q0 46 42.5 89.5t81.5 43.5z" />
    <glyph glyph-name="nonbreakingspace" unicode="&#xa0;" horiz-adv-x="500" 
 />
    <glyph glyph-name="exclamdown" unicode="&#xa1;" horiz-adv-x="789" 
d="M691 694h86l-298 -494q-77 -128 -122 -164t-130 -36h-24v70h25q56 0 79.5 15t54.5 66l-353 543h83l311 -487zM589 885h72q0 -76 -55 -121t-153 -45h-81q-116 0 -171 67q-37 45 -37 99h72q0 -35 22 -62q35 -44 115 -44h79q80 0 115 43q22 27 22 63z" />
    <glyph glyph-name="exclamdown" unicode="&#x40e;" horiz-adv-x="789" 
d="M691 694h86l-298 -494q-77 -128 -122 -164t-130 -36h-24v70h25q56 0 79.5 15t54.5 66l-353 543h83l311 -487zM589 885h72q0 -76 -55 -121t-153 -45h-81q-116 0 -171 67q-37 45 -37 99h72q0 -35 22 -62q35 -44 115 -44h79q80 0 115 43q22 27 22 63z" />
    <glyph glyph-name="cent" unicode="&#xa2;" horiz-adv-x="585" 
d="M2 494h75l230 -424h14l182 424h75l-248 -559q-36 -82 -72 -111q-45 -36 -132 -36h-24v60h42q49 0 79 30t68 122h-18zM441 667h58q0 -72 -34 -100q-44 -36 -167 -36q-119 0 -162 35q-36 29 -36 101h58q0 -44 25 -59q31 -19 121 -19q84 0 110.5 17t26.5 61z" />
    <glyph glyph-name="cent" unicode="&#x45e;" horiz-adv-x="585" 
d="M2 494h75l230 -424h14l182 424h75l-248 -559q-36 -82 -72 -111q-45 -36 -132 -36h-24v60h42q49 0 79 30t68 122h-18zM441 667h58q0 -72 -34 -100q-44 -36 -167 -36q-119 0 -162 35q-36 29 -36 101h58q0 -44 25 -59q31 -19 121 -19q84 0 110.5 17t26.5 61z" />
    <glyph glyph-name="sterling" unicode="&#xa3;" horiz-adv-x="358" 
d="M60 0v78h78v-130q0 -36 -28 -54h-38q13 10 20.5 23t7.5 31v52h-40zM220 0v78h78v-130q0 -36 -28 -54h-38q13 10 20.5 23t7.5 31v52h-40z" />
    <glyph glyph-name="sterling" unicode="&#x408;" horiz-adv-x="358" 
d="M60 0v78h78v-130q0 -36 -28 -54h-38q13 10 20.5 23t7.5 31v52h-40zM220 0v78h78v-130q0 -36 -28 -54h-38q13 10 20.5 23t7.5 31v52h-40z" />
    <glyph glyph-name="yen" unicode="&#xa5;" horiz-adv-x="846" 
d="M22 694h100l300 -300l300 300h100l-316 -320h122v-56h-166v-81h166v-56h-166v-181h-78v181h-164v56h164v81h-164v56h122z" />
    <glyph glyph-name="yen" unicode="&#x490;" horiz-adv-x="846" 
d="M22 694h100l300 -300l300 300h100l-316 -320h122v-56h-166v-81h166v-56h-166v-181h-78v181h-164v56h164v81h-164v56h122z" />
    <glyph glyph-name="brokenbar" unicode="&#xa6;" horiz-adv-x="174" 
d="M58 260h56v-368h-56v368zM58 721h56v-368h-56v368z" />
    <glyph glyph-name="section" unicode="&#xa7;" horiz-adv-x="760" 
d="M552 208q63 0 88.5 22.5t25.5 67.5v42q0 33 -20.5 56.5t-55.5 23.5h-412q-48 0 -69 -25.5t-21 -74.5v-36q0 -76 74 -76h390zM672 540h-72q0 51 -19 73.5t-71 22.5h-296q-43 0 -61.5 -19t-18.5 -59q0 -78 74 -78h372q63 0 103.5 -34.5t40.5 -87.5v-70q0 -49 -21 -83
t-65 -41q6 -5 10 -9q24 -27 24 -71v-34q0 -55 -40.5 -89.5t-107.5 -34.5h-302q-71 0 -110.5 43.5t-39.5 114.5h72q0 -47 20.5 -72.5t61.5 -25.5h310q36 0 56 20t20 62q0 34 -21 56t-55 22h-378q-57 0 -94.5 35.5t-37.5 86.5v56q0 56 28 96q22 31 49 40q-31 10 -31 74v34
q0 59 37.5 93.5t112.5 34.5h292q82 0 122 -44q36 -39 36 -112z" />
    <glyph glyph-name="dieresis" unicode="&#xa8;" horiz-adv-x="738" 
d="M60 0v694h615v-70h-543v-230h529v-70h-529v-254h543v-70h-615zM258 816h72v-72h-72v72zM436 816h72v-72h-72v72z" />
    <glyph glyph-name="dieresis" unicode="&#x401;" horiz-adv-x="738" 
d="M60 0v694h615v-70h-543v-230h529v-70h-529v-254h543v-70h-615zM258 816h72v-72h-72v72zM436 816h72v-72h-72v72z" />
    <glyph glyph-name="copyright" unicode="&#xa9;" horiz-adv-x="712" 
d="M516 418h44q0 -50 -29 -74t-97 -24h-152q-70 0 -99 28t-29 96v100q0 68 29 97t99 29h152q126 0 126 -98h-44q0 30 -16 42t-65 12h-155q-53 0 -67.5 -13.5t-14.5 -66.5v-101q0 -53 15 -67t69 -14h152q50 0 66 10t16 44zM618 585q0 79 -29 107t-110 28h-237q-78 0 -111 -29
t-33 -106v-173q0 -77 31.5 -104.5t112.5 -27.5h237q85 0 112 26t27 106v173zM675 412q0 -113 -41.5 -149.5t-153.5 -36.5h-238q-111 0 -156 41t-45 145v169q0 105 44 149t157 44h238q104 0 146 -37q49 -43 49 -156v-169z" />
    <glyph glyph-name="ordfeminine" unicode="&#xaa;" horiz-adv-x="912" 
d="M714 393v-70h-600v-77q0 -102 40 -139t146 -37h303q98 0 138.5 29.5t40.5 96.5h72q0 -99 -59 -147.5t-193 -48.5h-304q-140 0 -198 56t-58 190v202q0 138 58 196t198 58h304q252 0 252 -198h-72q0 63 -37 93q-43 35 -142 35h-304q-106 0 -145.5 -38.5t-39.5 -145.5v-55
h600z" />
    <glyph glyph-name="ordfeminine" unicode="&#x404;" horiz-adv-x="912" 
d="M714 393v-70h-600v-77q0 -102 40 -139t146 -37h303q98 0 138.5 29.5t40.5 96.5h72q0 -99 -59 -147.5t-193 -48.5h-304q-140 0 -198 56t-58 190v202q0 138 58 196t198 58h304q252 0 252 -198h-72q0 63 -37 93q-43 35 -142 35h-304q-106 0 -145.5 -38.5t-39.5 -145.5v-55
h600z" />
    <glyph glyph-name="guillemotleft" unicode="&#xab;" horiz-adv-x="554" 
d="M118 278l170 -168l-34 -34l-202 202l206 206l32 -34zM298 278l170 -168l-34 -34l-202 202l206 206l32 -34z" />
    <glyph glyph-name="minus" unicode="&#xad;" horiz-adv-x="467" 
d="M40 603h388v-39h-388v39z" />
    <glyph glyph-name="registered" unicode="&#xae;" 
d="M616 585q0 79 -29 107t-110 28h-237q-78 0 -111 -29t-33 -106v-173q0 -77 31.5 -104.5t112.5 -27.5h237q85 0 112 26t27 106v173zM673 412q0 -113 -41.5 -149.5t-153.5 -36.5h-238q-111 0 -156 41t-45 145v169q0 105 44 149t157 44h238q104 0 146 -37q49 -43 49 -156
v-169zM217 626v-124h216q36 0 51 15t15 57q0 25 -15 38.5t-48 13.5h-219zM217 458v-138h-44v350h250q62 0 93 -30q27 -27 27 -73q0 -35 -15 -56q-10 -13 -33 -27q19 -5 33.5 -26t14.5 -57v-81h-44v81q0 57 -56 57h-226z" />
    <glyph glyph-name="macron" unicode="&#xaf;" horiz-adv-x="282" 
d="M174 694v-694h-72v694h72zM13 816h72v-72h-72v72zM191 816h72v-72h-72v72z" />
    <glyph glyph-name="macron" unicode="&#x407;" horiz-adv-x="282" 
d="M174 694v-694h-72v694h72zM13 816h72v-72h-72v72zM191 816h72v-72h-72v72z" />
    <glyph glyph-name="degree" unicode="&#xb0;" horiz-adv-x="282" 
d="M52 608q0 25 16 41.5t50 16.5h54q34 0 50 -16t16 -42v-34q0 -25 -16 -41t-50 -16h-54q-32 0 -49 16.5t-17 40.5v34zM74 574q0 -17 12 -26t32 -9h54q44 0 44 35v34q0 36 -44 36h-54q-44 0 -44 -36v-34z" />
    <glyph glyph-name="plusminus" unicode="&#xb1;" horiz-adv-x="446" 
d="M54 220h318v-72h-318v72zM36 456h144v144h66v-144h146v-68h-146v-144h-66v144h-144v68z" />
    <glyph glyph-name="twosuperior" unicode="&#xb2;" horiz-adv-x="282" 
d="M174 694v-694h-72v694h72z" />
    <glyph glyph-name="twosuperior" unicode="&#x406;" horiz-adv-x="282" 
d="M174 694v-694h-72v694h72z" />
    <glyph glyph-name="threesuperior" unicode="&#xb3;" horiz-adv-x="228" 
d="M150 494v-494h-72v494h72zM78 694h72v-72h-72v72z" />
    <glyph glyph-name="threesuperior" unicode="&#x456;" horiz-adv-x="228" 
d="M150 494v-494h-72v494h72zM78 694h72v-72h-72v72z" />
    <glyph glyph-name="acute" unicode="&#xb4;" horiz-adv-x="282" 
d="M190 728l42 -48l-168 -112l-28 24z" />
    <glyph glyph-name="acute" unicode="&#x491;" horiz-adv-x="282" 
d="M190 728l42 -48l-168 -112l-28 24z" />
    <glyph glyph-name="paragraph" unicode="&#xb6;" 
d="M512 -56h-78v354h-152q-124 0 -183 50.5t-59 141.5q0 99 60.5 152t183.5 53h228v-751zM654 -56h-72v751h72v-751z" />
    <glyph glyph-name="periodcentered" unicode="&#xb7;" horiz-adv-x="196" 
d="M60 302v78h78v-78h-78z" />
    <glyph glyph-name="periodcentered" unicode="&#x2219;" horiz-adv-x="196" 
d="M60 302v78h78v-78h-78z" />
    <glyph glyph-name="cedilla" unicode="&#xb8;" horiz-adv-x="728" 
d="M608 302q0 62 -35 98t-98 36h-226q-57 0 -92 -36t-35 -98h486zM680 242h-558v-48q0 -72 39 -105q34 -29 98 -29h234q57 0 86 27t29 71h72q0 -65 -36 -106q-45 -52 -139 -52h-243q-212 0 -212 184v130q0 73 54 125q59 57 156 57h208q102 0 159 -52q53 -48 53 -122v-80z
M245 694h72v-72h-72v72zM423 694h72v-72h-72v72z" />
    <glyph glyph-name="cedilla" unicode="&#x451;" horiz-adv-x="728" 
d="M608 302q0 62 -35 98t-98 36h-226q-57 0 -92 -36t-35 -98h486zM680 242h-558v-48q0 -72 39 -105q34 -29 98 -29h234q57 0 86 27t29 71h72q0 -65 -36 -106q-45 -52 -139 -52h-243q-212 0 -212 184v130q0 73 54 125q59 57 156 57h208q102 0 159 -52q53 -48 53 -122v-80z
M245 694h72v-72h-72v72zM423 694h72v-72h-72v72z" />
    <glyph glyph-name="onesuperior" unicode="&#xb9;" horiz-adv-x="1261" 
d="M58 694h160l534 -622v622h72v-694h-104l-550 640h-40v-640h-72v694zM878 196h316v-40h-316v40zM878 441q0 46 25.5 72t82.5 26h100q58 0 85 -29q23 -25 23 -69v-54q0 -43 -24 -68q-28 -30 -84 -30h-100q-108 0 -108 98v54zM914 387q0 -66 76 -66h92q36 0 56 16t20 50v54
q0 66 -76 66h-92q-76 0 -76 -66v-54z" />
    <glyph glyph-name="onesuperior" unicode="&#x2116;" horiz-adv-x="1261" 
d="M58 694h160l534 -622v622h72v-694h-104l-550 640h-40v-640h-72v694zM878 196h316v-40h-316v40zM878 441q0 46 25.5 72t82.5 26h100q58 0 85 -29q23 -25 23 -69v-54q0 -43 -24 -68q-28 -30 -84 -30h-100q-108 0 -108 98v54zM914 387q0 -66 76 -66h92q36 0 56 16t20 50v54
q0 66 -76 66h-92q-76 0 -76 -66v-54z" />
    <glyph glyph-name="ordmasculine" unicode="&#xba;" 
d="M536 290v-60h-422v-48q0 -58 37 -90t92 -32h220q81 0 115 43q22 28 22 71h72q0 -59 -31 -102q-52 -72 -178 -72h-221q-101 0 -150.5 47.5t-49.5 134.5v124q0 85 50 135q54 55 156 55h216q124 0 176 -72q32 -44 32 -102h-72q0 55 -36.5 84.5t-99.5 29.5h-216
q-64 0 -99 -33t-35 -97v-16h422z" />
    <glyph glyph-name="ordmasculine" unicode="&#x454;" 
d="M536 290v-60h-422v-48q0 -58 37 -90t92 -32h220q81 0 115 43q22 28 22 71h72q0 -59 -31 -102q-52 -72 -178 -72h-221q-101 0 -150.5 47.5t-49.5 134.5v124q0 85 50 135q54 55 156 55h216q124 0 176 -72q32 -44 32 -102h-72q0 55 -36.5 84.5t-99.5 29.5h-216
q-64 0 -99 -33t-35 -97v-16h422z" />
    <glyph glyph-name="guillemotright" unicode="&#xbb;" horiz-adv-x="554" 
d="M252 278l-172 174l32 32l206 -206l-200 -200l-34 32zM438 278l-174 174l34 32l206 -206l-202 -200l-32 32z" />
    <glyph glyph-name="onequarter" unicode="&#xbc;" horiz-adv-x="446" 
d="M54 326h328v-66h-328v66zM182 92v78h78v-78h-78zM182 416v78h78v-78h-78z" />
    <glyph glyph-name="onequarter" unicode="&#x458;" horiz-adv-x="446" 
d="M54 326h328v-66h-328v66zM182 92v78h78v-78h-78zM182 416v78h78v-78h-78z" />
    <glyph glyph-name="onehalf" unicode="&#xbd;" horiz-adv-x="468" 
d="M130 442l102 -102l102 102l46 -47l-101 -102l103 -103l-47 -46l-103 103l-103 -103l-47 46l103 103l-101 102z" />
    <glyph glyph-name="onehalf" unicode="&#x405;" horiz-adv-x="468" 
d="M130 442l102 -102l102 102l46 -47l-101 -102l103 -103l-47 -46l-103 103l-103 -103l-47 46l103 103l-101 102z" />
    <glyph glyph-name="threequarters" unicode="&#xbe;" horiz-adv-x="466" 
d="M60 0v78h78v-78h-78zM334 0v78h78v-78h-78zM197 0v78h78v-78h-78z" />
    <glyph glyph-name="threequarters" unicode="&#x455;" horiz-adv-x="466" 
d="M60 0v78h78v-78h-78zM334 0v78h78v-78h-78zM197 0v78h78v-78h-78z" />
    <glyph glyph-name="questiondown" unicode="&#xbf;" horiz-adv-x="221" 
d="M-11 694h72v-72h-72v72zM167 694h72v-72h-72v72zM150 494v-494h-72v494h72z" />
    <glyph glyph-name="questiondown" unicode="&#x457;" horiz-adv-x="221" 
d="M-11 694h72v-72h-72v72zM167 694h72v-72h-72v72zM150 494v-494h-72v494h72z" />
    <glyph glyph-name="Agrave" unicode="&#xc0;" horiz-adv-x="846" 
d="M88 0h-80l360 694h110l360 -694h-84l-89 174h-488zM216 244h412l-206 400z" />
    <glyph glyph-name="Agrave" unicode="&#x410;" horiz-adv-x="846" 
d="M88 0h-80l360 694h110l360 -694h-84l-89 174h-488zM216 244h412l-206 400z" />
    <glyph glyph-name="Aacute" unicode="&#xc1;" horiz-adv-x="814" 
d="M62 694h653v-70h-581v-217h397q133 0 188 -45t55 -160q0 -110 -47 -156t-170 -46h-495v694zM134 337v-267h425q81 0 110 24q33 27 33 106q0 77 -33 107t-117 30h-418z" />
    <glyph glyph-name="Aacute" unicode="&#x411;" horiz-adv-x="814" 
d="M62 694h653v-70h-581v-217h397q133 0 188 -45t55 -160q0 -110 -47 -156t-170 -46h-495v694zM134 337v-267h425q81 0 110 24q33 27 33 106q0 77 -33 107t-117 30h-418z" />
    <glyph glyph-name="Acircumflex" unicode="&#xc2;" horiz-adv-x="890" 
d="M134 624v-226h472q74 0 106 22q36 25 36 88q0 58 -33.5 87t-108.5 29h-472zM62 0v694h516q242 0 242 -178q0 -71 -31 -111q-22 -29 -56 -39q22 -5 43 -20q64 -46 64 -142q0 -112 -62 -160q-57 -44 -182 -44h-534zM134 328v-258h490q72 0 108 32t36 102q0 66 -38 95
t-112 29h-484z" />
    <glyph glyph-name="Acircumflex" unicode="&#x412;" horiz-adv-x="890" 
d="M134 624v-226h472q74 0 106 22q36 25 36 88q0 58 -33.5 87t-108.5 29h-472zM62 0v694h516q242 0 242 -178q0 -71 -31 -111q-22 -29 -56 -39q22 -5 43 -20q64 -46 64 -142q0 -112 -62 -160q-57 -44 -182 -44h-534zM134 328v-258h490q72 0 108 32t36 102q0 66 -38 95
t-112 29h-484z" />
    <glyph glyph-name="Atilde" unicode="&#xc3;" 
d="M68 694h595v-70h-523v-624h-72v694z" />
    <glyph glyph-name="Atilde" unicode="&#x413;" 
d="M68 694h595v-70h-523v-624h-72v694z" />
    <glyph glyph-name="Adieresis" unicode="&#xc4;" horiz-adv-x="951" 
d="M785 70v554h-541v-357q0 -64 -17 -114q-20 -57 -59 -83h617zM857 694v-624h57v-258h-68v188h-733v-188h-68v258h37q45 32 67.5 73.5t22.5 104.5v446h685z" />
    <glyph glyph-name="Adieresis" unicode="&#x414;" horiz-adv-x="951" 
d="M785 70v554h-541v-357q0 -64 -17 -114q-20 -57 -59 -83h617zM857 694v-624h57v-258h-68v188h-733v-188h-68v258h37q45 32 67.5 73.5t22.5 104.5v446h685z" />
    <glyph glyph-name="Aring" unicode="&#xc5;" horiz-adv-x="738" 
d="M60 0v694h615v-70h-543v-230h529v-70h-529v-254h543v-70h-615z" />
    <glyph glyph-name="Aring" unicode="&#x415;" horiz-adv-x="738" 
d="M60 0v694h615v-70h-543v-230h529v-70h-529v-254h543v-70h-615z" />
    <glyph glyph-name="AE" unicode="&#xc6;" horiz-adv-x="1408" 
d="M665 0v338h-127l-404 -338h-113l457 375l-448 319h116l403 -286h116v286h72v-286h116l402 286h117l-448 -319l457 -375h-113l-403 338h-128v-338h-72z" />
    <glyph glyph-name="AE" unicode="&#x416;" horiz-adv-x="1408" 
d="M665 0v338h-127l-404 -338h-113l457 375l-448 319h116l403 -286h116v286h72v-286h116l402 286h117l-448 -319l457 -375h-113l-403 338h-128v-338h-72z" />
    <glyph glyph-name="Ccedilla" unicode="&#xc7;" horiz-adv-x="912" 
d="M42 196h72q0 -67 40.5 -96.5t138.5 -29.5h304q105 0 145 28t40 108q0 55 -24 83q-29 34 -93 34h-429v70h409q71 0 96.5 21.5t25.5 82.5q0 75 -38.5 105t-141.5 30h-294q-99 0 -141 -34q-38 -31 -38 -94h-72q0 198 252 198h294q129 0 192 -54q59 -50 59 -141
q0 -69 -25 -105q-20 -29 -58 -40q52 -18 75 -57.5t23 -114.5q0 -101 -59 -145.5t-197 -44.5h-305q-134 0 -192.5 48t-58.5 148z" />
    <glyph glyph-name="Ccedilla" unicode="&#x417;" horiz-adv-x="912" 
d="M42 196h72q0 -67 40.5 -96.5t138.5 -29.5h304q105 0 145 28t40 108q0 55 -24 83q-29 34 -93 34h-429v70h409q71 0 96.5 21.5t25.5 82.5q0 75 -38.5 105t-141.5 30h-294q-99 0 -141 -34q-38 -31 -38 -94h-72q0 198 252 198h294q129 0 192 -54q59 -50 59 -141
q0 -69 -25 -105q-20 -29 -58 -40q52 -18 75 -57.5t23 -114.5q0 -101 -59 -145.5t-197 -44.5h-305q-134 0 -192.5 48t-58.5 148z" />
    <glyph glyph-name="Egrave" unicode="&#xc8;" horiz-adv-x="880" 
d="M130 694v-640h6l549 640h139v-694h-72v640h-27l-550 -640h-117v694h72z" />
    <glyph glyph-name="Egrave" unicode="&#x418;" horiz-adv-x="880" 
d="M130 694v-640h6l549 640h139v-694h-72v640h-27l-550 -640h-117v694h72z" />
    <glyph glyph-name="Eacute" unicode="&#xc9;" horiz-adv-x="880" 
d="M130 694v-640h6l549 640h139v-694h-72v640h-27l-550 -640h-117v694h72zM593 885h72q0 -76 -55 -121t-153 -45h-81q-116 0 -171 67q-37 45 -37 99h72q0 -35 22 -62q35 -44 115 -44h79q80 0 115 43q22 27 22 63z" />
    <glyph glyph-name="Eacute" unicode="&#x419;" horiz-adv-x="880" 
d="M130 694v-640h6l549 640h139v-694h-72v640h-27l-550 -640h-117v694h72zM593 885h72q0 -76 -55 -121t-153 -45h-81q-116 0 -171 67q-37 45 -37 99h72q0 -35 22 -62q35 -44 115 -44h79q80 0 115 43q22 27 22 63z" />
    <glyph glyph-name="Ecircumflex" unicode="&#xca;" horiz-adv-x="827" 
d="M122 327v-327h-72v694h72v-297h116l439 297h126l-490 -331l502 -363h-126l-448 327h-119z" />
    <glyph glyph-name="Ecircumflex" unicode="&#x41a;" horiz-adv-x="827" 
d="M122 327v-327h-72v694h72v-297h116l439 297h126l-490 -331l502 -363h-126l-448 327h-119z" />
    <glyph glyph-name="Edieresis" unicode="&#xcb;" horiz-adv-x="897" 
d="M773 622h-566v-458q0 -89 -42 -128q-38 -36 -116 -36h-29v70h38q32 0 51 18q26 24 26 76v530h710v-694h-72v622z" />
    <glyph glyph-name="Edieresis" unicode="&#x41b;" horiz-adv-x="897" 
d="M773 622h-566v-458q0 -89 -42 -128q-38 -36 -116 -36h-29v70h38q32 0 51 18q26 24 26 76v530h710v-694h-72v622z" />
    <glyph glyph-name="Igrave" unicode="&#xcc;" horiz-adv-x="1128" 
d="M58 694h154l352 -592l350 592h154v-694h-72v638h-40l-374 -638h-37l-374 638h-41v-638h-72v694z" />
    <glyph glyph-name="Igrave" unicode="&#x41c;" horiz-adv-x="1128" 
d="M58 694h154l352 -592l350 592h154v-694h-72v638h-40l-374 -638h-37l-374 638h-41v-638h-72v694z" />
    <glyph glyph-name="Iacute" unicode="&#xcd;" horiz-adv-x="880" 
d="M140 323v-323h-72v694h72v-301h616v301h72v-694h-72v323h-616z" />
    <glyph glyph-name="Iacute" unicode="&#x41d;" horiz-adv-x="880" 
d="M140 323v-323h-72v694h72v-301h616v301h72v-694h-72v323h-616z" />
    <glyph glyph-name="Icircumflex" unicode="&#xce;" horiz-adv-x="912" 
d="M792 460q0 102 -37 137t-142 35h-304q-101 0 -143 -36.5t-42 -135.5v-222q0 -99 40 -133.5t145 -34.5h304q109 0 144 33t35 135v222zM864 238q0 -144 -56 -193q-51 -45 -194 -45h-304q-142 0 -200 52.5t-58 185.5v216q0 136 56 192t202 56h304q134 0 188 -48
q62 -55 62 -200v-216z" />
    <glyph glyph-name="Icircumflex" unicode="&#x41e;" horiz-adv-x="912" 
d="M792 460q0 102 -37 137t-142 35h-304q-101 0 -143 -36.5t-42 -135.5v-222q0 -99 40 -133.5t145 -34.5h304q109 0 144 33t35 135v222zM864 238q0 -144 -56 -193q-51 -45 -194 -45h-304q-142 0 -200 52.5t-58 185.5v216q0 136 56 192t202 56h304q134 0 188 -48
q62 -55 62 -200v-216z" />
    <glyph glyph-name="Idieresis" unicode="&#xcf;" horiz-adv-x="880" 
d="M68 694h760v-694h-72v624h-616v-624h-72v694z" />
    <glyph glyph-name="Idieresis" unicode="&#x41f;" horiz-adv-x="880" 
d="M68 694h760v-694h-72v624h-616v-624h-72v694z" />
    <glyph glyph-name="Eth" unicode="&#xd0;" horiz-adv-x="814" 
d="M134 287v-287h-72v694h468q130 0 187 -49t57 -165q0 -113 -54.5 -153t-188.5 -40h-397zM134 624v-267h425q81 0 110 24q33 27 33 106q0 77 -33 107t-117 30h-418z" />
    <glyph glyph-name="Eth" unicode="&#x420;" horiz-adv-x="814" 
d="M134 287v-287h-72v694h468q130 0 187 -49t57 -165q0 -113 -54.5 -153t-188.5 -40h-397zM134 624v-267h425q81 0 110 24q33 27 33 106q0 77 -33 107t-117 30h-418z" />
    <glyph glyph-name="Ntilde" unicode="&#xd1;" horiz-adv-x="912" 
d="M782 198h72q0 -100 -58.5 -149t-193.5 -49h-304q-139 0 -197.5 56.5t-58.5 191.5v200q0 138 58 196t198 58h304q252 0 252 -198h-72q0 63 -37 93q-43 35 -142 35h-304q-106 0 -145.5 -38.5t-39.5 -145.5v-200q0 -103 39.5 -140.5t145.5 -37.5h304q97 0 138 30.5t41 97.5z
" />
    <glyph glyph-name="Ntilde" unicode="&#x421;" horiz-adv-x="912" 
d="M782 198h72q0 -100 -58.5 -149t-193.5 -49h-304q-139 0 -197.5 56.5t-58.5 191.5v200q0 138 58 196t198 58h304q252 0 252 -198h-72q0 63 -37 93q-43 35 -142 35h-304q-106 0 -145.5 -38.5t-39.5 -145.5v-200q0 -103 39.5 -140.5t145.5 -37.5h304q97 0 138 30.5t41 97.5z
" />
    <glyph glyph-name="Ograve" unicode="&#xd2;" horiz-adv-x="792" 
d="M22 694h748v-70h-339v-624h-72v624h-337v70z" />
    <glyph glyph-name="Ograve" unicode="&#x422;" horiz-adv-x="792" 
d="M22 694h748v-70h-339v-624h-72v624h-337v70z" />
    <glyph glyph-name="Oacute" unicode="&#xd3;" horiz-adv-x="789" 
d="M691 694h86l-298 -494q-77 -128 -122 -164t-130 -36h-24v70h25q56 0 79.5 15t54.5 66l-353 543h83l311 -487z" />
    <glyph glyph-name="Oacute" unicode="&#x423;" horiz-adv-x="789" 
d="M691 694h86l-298 -494q-77 -128 -122 -164t-130 -36h-24v70h25q56 0 79.5 15t54.5 66l-353 543h83l311 -487z" />
    <glyph glyph-name="Ocircumflex" unicode="&#xd4;" horiz-adv-x="1114" 
d="M515 138v432h-210q-101 0 -143.5 -36.5t-42.5 -135.5v-91q0 -99 41 -134t145 -35h210zM587 570v-432h211q104 0 144.5 34.5t40.5 133.5v91q0 98 -42.5 135.5t-142.5 37.5h-211zM515 702h72v-62h210q142 0 202 -62q56 -58 56 -186v-86q0 -133 -57.5 -185.5t-200.5 -52.5
h-210v-68h-72v68h-210q-142 0 -200 53t-58 185v86q0 136 56 192t202 56h210v62z" />
    <glyph glyph-name="Ocircumflex" unicode="&#x424;" horiz-adv-x="1114" 
d="M515 138v432h-210q-101 0 -143.5 -36.5t-42.5 -135.5v-91q0 -99 41 -134t145 -35h210zM587 570v-432h211q104 0 144.5 34.5t40.5 133.5v91q0 98 -42.5 135.5t-142.5 37.5h-211zM515 702h72v-62h210q142 0 202 -62q56 -58 56 -186v-86q0 -133 -57.5 -185.5t-200.5 -52.5
h-210v-68h-72v68h-210q-142 0 -200 53t-58 185v86q0 136 56 192t202 56h210v62z" />
    <glyph glyph-name="Otilde" unicode="&#xd5;" horiz-adv-x="858" 
d="M706 694h96l-326 -326l368 -368h-96l-334 334l-334 -334h-96l368 368l-321 326h91l292 -294z" />
    <glyph glyph-name="Otilde" unicode="&#x425;" horiz-adv-x="858" 
d="M706 694h96l-326 -326l368 -368h-96l-334 334l-334 -334h-96l368 368l-321 326h91l292 -294z" />
    <glyph glyph-name="Odieresis" unicode="&#xd6;" horiz-adv-x="936" 
d="M140 70h616v624h72v-624h58v-258h-68v188h-750v694h72v-624z" />
    <glyph glyph-name="Odieresis" unicode="&#x426;" horiz-adv-x="936" 
d="M140 70h616v624h72v-624h58v-258h-68v188h-750v694h72v-624z" />
    <glyph glyph-name="multiply" unicode="&#xd7;" horiz-adv-x="853" 
d="M63 694h72v-205q0 -73 40 -105.5t146 -32.5h232q91 0 131 30q31 23 45 80v233h72v-694h-72v341q-25 -33 -69.5 -46.5t-106.5 -13.5h-232q-137 0 -194 48q-64 54 -64 188v177z" />
    <glyph glyph-name="multiply" unicode="&#x427;" horiz-adv-x="853" 
d="M63 694h72v-205q0 -73 40 -105.5t146 -32.5h232q91 0 131 30q31 23 45 80v233h72v-694h-72v341q-25 -33 -69.5 -46.5t-106.5 -13.5h-232q-137 0 -194 48q-64 54 -64 188v177z" />
    <glyph glyph-name="Oslash" unicode="&#xd8;" horiz-adv-x="1203" 
d="M148 694v-624h417v624h72v-624h417v624h72v-694h-1050v694h72z" />
    <glyph glyph-name="Oslash" unicode="&#x428;" horiz-adv-x="1203" 
d="M148 694v-624h417v624h72v-624h417v624h72v-694h-1050v694h72z" />
    <glyph glyph-name="Ugrave" unicode="&#xd9;" horiz-adv-x="1203" 
d="M148 694v-624h417v624h72v-624h417v624h72v-624h59v-260h-69v190h-1040v694h72z" />
    <glyph glyph-name="Ugrave" unicode="&#x429;" horiz-adv-x="1203" 
d="M148 694v-624h417v624h72v-624h417v624h72v-624h59v-260h-69v190h-1040v694h72z" />
    <glyph glyph-name="Uacute" unicode="&#xda;" horiz-adv-x="924" 
d="M16 694h228v-287h397q133 0 188 -45t55 -160q0 -110 -47 -156t-170 -46h-495v624h-156v70zM244 337v-267h425q81 0 110 24q33 27 33 106q0 77 -33 107t-117 30h-418z" />
    <glyph glyph-name="Uacute" unicode="&#x42a;" horiz-adv-x="924" 
d="M16 694h228v-287h397q133 0 188 -45t55 -160q0 -110 -47 -156t-170 -46h-495v624h-156v70zM244 337v-267h425q81 0 110 24q33 27 33 106q0 77 -33 107t-117 30h-418z" />
    <glyph glyph-name="Ucircumflex" unicode="&#xdb;" horiz-adv-x="1028" 
d="M134 694v-287h397q133 0 188 -45t55 -160q0 -110 -47 -156t-170 -46h-495v694h72zM134 337v-267h425q81 0 110 24q33 27 33 106q0 77 -33 107t-117 30h-418zM965 694v-694h-72v694h72z" />
    <glyph glyph-name="Ucircumflex" unicode="&#x42b;" horiz-adv-x="1028" 
d="M134 694v-287h397q133 0 188 -45t55 -160q0 -110 -47 -156t-170 -46h-495v694h72zM134 337v-267h425q81 0 110 24q33 27 33 106q0 77 -33 107t-117 30h-418zM965 694v-694h-72v694h72z" />
    <glyph glyph-name="Udieresis" unicode="&#xdc;" horiz-adv-x="814" 
d="M134 694v-287h397q133 0 188 -45t55 -160q0 -110 -47 -156t-170 -46h-495v694h72zM134 337v-267h425q81 0 110 24q33 27 33 106q0 77 -33 107t-117 30h-418z" />
    <glyph glyph-name="Udieresis" unicode="&#x42c;" horiz-adv-x="814" 
d="M134 694v-287h397q133 0 188 -45t55 -160q0 -110 -47 -156t-170 -46h-495v694h72zM134 337v-267h425q81 0 110 24q33 27 33 106q0 77 -33 107t-117 30h-418z" />
    <glyph glyph-name="Yacute" unicode="&#xdd;" horiz-adv-x="912" 
d="M182 323v70h600v55q0 106 -39 145t-146 39h-304q-99 0 -141 -34q-38 -31 -38 -94h-72q0 198 252 198h304q140 0 198 -58t58 -196v-202q0 -134 -58 -190t-198 -56h-304q-135 0 -193.5 48t-58.5 148h72q0 -67 40 -96.5t139 -29.5h304q105 0 145 36.5t40 139.5v77h-600z" />
    <glyph glyph-name="Yacute" unicode="&#x42d;" horiz-adv-x="912" 
d="M182 323v70h600v55q0 106 -39 145t-146 39h-304q-99 0 -141 -34q-38 -31 -38 -94h-72q0 198 252 198h304q140 0 198 -58t58 -196v-202q0 -134 -58 -190t-198 -56h-304q-135 0 -193.5 48t-58.5 148h72q0 -67 40 -96.5t139 -29.5h304q105 0 145 36.5t40 139.5v77h-600z" />
    <glyph glyph-name="Thorn" unicode="&#xde;" horiz-adv-x="1189" 
d="M1069 460q0 102 -37 137t-142 35h-304q-101 0 -143 -36.5t-42 -135.5v-222q0 -99 40 -133.5t145 -34.5h304q109 0 144 33t35 135v222zM133 694v-302h196v62q0 136 56 192t202 56h304q134 0 188 -48q62 -55 62 -200v-216q0 -144 -56 -193q-51 -45 -194 -45h-304
q-139 0 -198.5 55.5t-59.5 182.5v84h-196v-322h-72v694h72z" />
    <glyph glyph-name="Thorn" unicode="&#x42e;" horiz-adv-x="1189" 
d="M1069 460q0 102 -37 137t-142 35h-304q-101 0 -143 -36.5t-42 -135.5v-222q0 -99 40 -133.5t145 -34.5h304q109 0 144 33t35 135v222zM133 694v-302h196v62q0 136 56 192t202 56h304q134 0 188 -48q62 -55 62 -200v-216q0 -144 -56 -193q-51 -45 -194 -45h-304
q-139 0 -198.5 55.5t-59.5 182.5v84h-196v-322h-72v694h72z" />
    <glyph glyph-name="germandbls" unicode="&#xdf;" horiz-adv-x="819" 
d="M682 287h-346l-222 -287h-100l236 287q-103 0 -155.5 47.5t-52.5 145.5q0 116 57 165t187 49h468v-694h-72v287zM682 357v267h-425q-78 0 -110.5 -31.5t-32.5 -112.5q0 -75 31.5 -99t118.5 -24h418z" />
    <glyph glyph-name="germandbls" unicode="&#x42f;" horiz-adv-x="819" 
d="M682 287h-346l-222 -287h-100l236 287q-103 0 -155.5 47.5t-52.5 145.5q0 116 57 165t187 49h468v-694h-72v287zM682 357v267h-425q-78 0 -110.5 -31.5t-32.5 -112.5q0 -75 31.5 -99t118.5 -24h418z" />
    <glyph glyph-name="agrave" unicode="&#xe0;" horiz-adv-x="711" 
d="M48 186q0 53 36 83q40 33 118 33h288q41 0 65 -12q15 -7 27 -27v69q0 46 -28 72q-32 30 -94 30h-191q-78 0 -104 -24q-18 -17 -18 -58h-74q0 63 25 93q41 49 153 49h217q97 0 143 -46q43 -43 43 -128v-320h-72v40q-12 -14 -21 -20q-29 -20 -67 -20h-280q-82 0 -124 30.5
t-42 95.5v60zM228 242q-65 0 -86.5 -16.5t-21.5 -55.5v-36q0 -36 21 -53q26 -21 87 -21h244q110 0 110 92q0 46 -28 68t-82 22h-244z" />
    <glyph glyph-name="agrave" unicode="&#x430;" horiz-adv-x="711" 
d="M48 186q0 53 36 83q40 33 118 33h288q41 0 65 -12q15 -7 27 -27v69q0 46 -28 72q-32 30 -94 30h-191q-78 0 -104 -24q-18 -17 -18 -58h-74q0 63 25 93q41 49 153 49h217q97 0 143 -46q43 -43 43 -128v-320h-72v40q-12 -14 -21 -20q-29 -20 -67 -20h-280q-82 0 -124 30.5
t-42 95.5v60zM228 242q-65 0 -86.5 -16.5t-21.5 -55.5v-36q0 -36 21 -53q26 -21 87 -21h244q110 0 110 92q0 46 -28 68t-82 22h-244z" />
    <glyph glyph-name="aacute" unicode="&#xe1;" 
d="M587 695h57q0 -67 -41.5 -95t-136.5 -28h-211q-72 0 -108 -47q-30 -39 -30 -101q18 33 49 51q37 21 94 21h198q115 0 169 -58q47 -50 47 -136v-108q0 -86 -48 -136q-56 -58 -169 -58h-198q-108 0 -161 49t-53 144v189q0 105 42 171q50 79 150 79h219q74 0 102.5 14.5
t28.5 48.5zM602 302q0 65 -38.5 99.5t-110.5 34.5h-188q-73 0 -110.5 -34.5t-37.5 -99.5v-108q0 -134 148 -134h188q70 0 109.5 32.5t39.5 101.5v108z" />
    <glyph glyph-name="aacute" unicode="&#x431;" 
d="M587 695h57q0 -67 -41.5 -95t-136.5 -28h-211q-72 0 -108 -47q-30 -39 -30 -101q18 33 49 51q37 21 94 21h198q115 0 169 -58q47 -50 47 -136v-108q0 -86 -48 -136q-56 -58 -169 -58h-198q-108 0 -161 49t-53 144v189q0 105 42 171q50 79 150 79h219q74 0 102.5 14.5
t28.5 48.5zM602 302q0 65 -38.5 99.5t-110.5 34.5h-188q-73 0 -110.5 -34.5t-37.5 -99.5v-108q0 -134 148 -134h188q70 0 109.5 32.5t39.5 101.5v108z" />
    <glyph glyph-name="acircumflex" unicode="&#xe2;" horiz-adv-x="738" 
d="M132 436v-156h373q92 0 92 68v20q0 68 -94 68h-371zM60 0v496h433q89 0 132.5 -34t43.5 -94v-20q0 -39 -21.5 -64.5t-56.5 -31.5q46 -11 70 -41q21 -26 21 -61v-22q0 -62 -43 -95t-135 -33h-444zM132 220v-160h370q108 0 108 68v22q0 36 -19 50q-26 20 -100 20h-359z" />
    <glyph glyph-name="acircumflex" unicode="&#x432;" horiz-adv-x="738" 
d="M132 436v-156h373q92 0 92 68v20q0 68 -94 68h-371zM60 0v496h433q89 0 132.5 -34t43.5 -94v-20q0 -39 -21.5 -64.5t-56.5 -31.5q46 -11 70 -41q21 -26 21 -61v-22q0 -62 -43 -95t-135 -33h-444zM132 220v-160h370q108 0 108 68v22q0 36 -19 50q-26 20 -100 20h-359z" />
    <glyph glyph-name="atilde" unicode="&#xe3;" horiz-adv-x="549" 
d="M46 494h470v-60h-398v-434h-72v494z" />
    <glyph glyph-name="atilde" unicode="&#x433;" horiz-adv-x="549" 
d="M46 494h470v-60h-398v-434h-72v494z" />
    <glyph glyph-name="adieresis" unicode="&#xe4;" horiz-adv-x="792" 
d="M82 60q40 22 58 70.5t18 118.5v245h547v-434h57v-248h-68v188h-582v-188h-68v248h38zM633 60v374h-403v-176q0 -65 -11 -110q-16 -65 -52 -88h466z" />
    <glyph glyph-name="adieresis" unicode="&#x434;" horiz-adv-x="792" 
d="M82 60q40 22 58 70.5t18 118.5v245h547v-434h57v-248h-68v188h-582v-188h-68v248h38zM633 60v374h-403v-176q0 -65 -11 -110q-16 -65 -52 -88h466z" />
    <glyph glyph-name="aring" unicode="&#xe5;" horiz-adv-x="728" 
d="M608 302q0 62 -35 98t-98 36h-226q-57 0 -92 -36t-35 -98h486zM680 242h-558v-48q0 -72 39 -105q34 -29 98 -29h234q57 0 86 27t29 71h72q0 -65 -36 -106q-45 -52 -139 -52h-243q-212 0 -212 184v130q0 73 54 125q59 57 156 57h208q102 0 159 -52q53 -48 53 -122v-80z
" />
    <glyph glyph-name="aring" unicode="&#x435;" horiz-adv-x="728" 
d="M608 302q0 62 -35 98t-98 36h-226q-57 0 -92 -36t-35 -98h486zM680 242h-558v-48q0 -72 39 -105q34 -29 98 -29h234q57 0 86 27t29 71h72q0 -65 -36 -106q-45 -52 -139 -52h-243q-212 0 -212 184v130q0 73 54 125q59 57 156 57h208q102 0 159 -52q53 -48 53 -122v-80z
" />
    <glyph glyph-name="ae" unicode="&#xe6;" horiz-adv-x="977" 
d="M455 0v246h-70l-272 -246h-99l310 278l-280 216h106l234 -188h71v188h72v-188h71l234 188h106l-280 -216l310 -278h-99l-272 246h-70v-246h-72z" />
    <glyph glyph-name="ae" unicode="&#x436;" horiz-adv-x="977" 
d="M455 0v246h-70l-272 -246h-99l310 278l-280 216h106l234 -188h71v188h72v-188h71l234 188h106l-280 -216l310 -278h-99l-272 246h-70v-246h-72z" />
    <glyph glyph-name="ccedilla" unicode="&#xe7;" horiz-adv-x="728" 
d="M120 340h-72v34q0 51 38 81q53 41 176 41h221q89 0 132.5 -34t43.5 -94v-20q0 -39 -21.5 -64.5t-56.5 -31.5q46 -11 70 -41q21 -26 21 -61v-22q0 -62 -43 -95t-135 -33h-274q-96 0 -138 37q-34 30 -34 85v36h72v-28q0 -35 19 -50q26 -20 97 -20h256q108 0 108 68v22
q0 36 -19 50q-26 20 -100 20h-255v60h269q92 0 92 68v20q0 68 -94 68h-233q-85 0 -119 -25q-21 -15 -21 -39v-32z" />
    <glyph glyph-name="ccedilla" unicode="&#x437;" horiz-adv-x="728" 
d="M120 340h-72v34q0 51 38 81q53 41 176 41h221q89 0 132.5 -34t43.5 -94v-20q0 -39 -21.5 -64.5t-56.5 -31.5q46 -11 70 -41q21 -26 21 -61v-22q0 -62 -43 -95t-135 -33h-274q-96 0 -138 37q-34 30 -34 85v36h72v-28q0 -35 19 -50q26 -20 97 -20h256q108 0 108 68v22
q0 36 -19 50q-26 20 -100 20h-255v60h269q92 0 92 68v20q0 68 -94 68h-233q-85 0 -119 -25q-21 -15 -21 -39v-32z" />
    <glyph glyph-name="egrave" unicode="&#xe8;" horiz-adv-x="738" 
d="M130 494v-438h23l407 438h120v-494h-72v438h-20l-407 -438h-123v494h72z" />
    <glyph glyph-name="egrave" unicode="&#x438;" horiz-adv-x="738" 
d="M130 494v-438h23l407 438h120v-494h-72v438h-20l-407 -438h-123v494h72z" />
    <glyph glyph-name="eacute" unicode="&#xe9;" horiz-adv-x="738" 
d="M130 494v-438h23l407 438h120v-494h-72v438h-20l-407 -438h-123v494h72zM497 667h58q0 -72 -34 -100q-44 -36 -167 -36q-119 0 -162 35q-36 29 -36 101h58q0 -44 25 -59q31 -19 121 -19q84 0 110.5 17t26.5 61z" />
    <glyph glyph-name="eacute" unicode="&#x439;" horiz-adv-x="738" 
d="M130 494v-438h23l407 438h120v-494h-72v438h-20l-407 -438h-123v494h72zM497 667h58q0 -72 -34 -100q-44 -36 -167 -36q-119 0 -162 35q-36 29 -36 101h58q0 -44 25 -59q31 -19 121 -19q84 0 110.5 17t26.5 61z" />
    <glyph glyph-name="ecircumflex" unicode="&#xea;" horiz-adv-x="620" 
d="M130 246v-246h-72v494h72v-188h78l260 188h115l-312 -220l338 -274h-104l-298 246h-77z" />
    <glyph glyph-name="ecircumflex" unicode="&#x43a;" horiz-adv-x="620" 
d="M130 246v-246h-72v494h72v-188h78l260 188h115l-312 -220l338 -274h-104l-298 246h-77z" />
    <glyph glyph-name="edieresis" unicode="&#xeb;" horiz-adv-x="763" 
d="M633 434h-413v-250q0 -93 -45.5 -138.5t-132.5 -45.5h-21v60h21q53 0 79.5 30.5t26.5 95.5v308h557v-494h-72v434z" />
    <glyph glyph-name="edieresis" unicode="&#x43b;" horiz-adv-x="763" 
d="M633 434h-413v-250q0 -93 -45.5 -138.5t-132.5 -45.5h-21v60h21q53 0 79.5 30.5t26.5 95.5v308h557v-494h-72v434z" />
    <glyph glyph-name="igrave" unicode="&#xec;" horiz-adv-x="869" 
d="M53 494h130l249 -421l251 421h130v-494h-72v438h-22l-262 -438h-48l-262 438h-22v-438h-72v494z" />
    <glyph glyph-name="igrave" unicode="&#x43c;" horiz-adv-x="869" 
d="M53 494h130l249 -421l251 421h130v-494h-72v438h-22l-262 -438h-48l-262 438h-22v-438h-72v494z" />
    <glyph glyph-name="iacute" unicode="&#xed;" horiz-adv-x="738" 
d="M130 232v-232h-72v494h72v-202h478v202h72v-494h-72v232h-478z" />
    <glyph glyph-name="iacute" unicode="&#x43d;" horiz-adv-x="738" 
d="M130 232v-232h-72v494h72v-202h478v202h72v-494h-72v232h-478z" />
    <glyph glyph-name="icircumflex" unicode="&#xee;" 
d="M44 302q0 88 49 138q55 56 167 56h198q115 0 169 -58q47 -50 47 -136v-108q0 -86 -48 -136q-56 -58 -169 -58h-197q-216 0 -216 194v108zM116 194q0 -134 149 -134h187q71 0 110.5 32t39.5 102v108q0 65 -38.5 99.5t-110.5 34.5h-188q-75 0 -112 -32t-37 -102v-108z" />
    <glyph glyph-name="icircumflex" unicode="&#x43e;" 
d="M44 302q0 88 49 138q55 56 167 56h198q115 0 169 -58q47 -50 47 -136v-108q0 -86 -48 -136q-56 -58 -169 -58h-197q-216 0 -216 194v108zM116 194q0 -134 149 -134h187q71 0 110.5 32t39.5 102v108q0 65 -38.5 99.5t-110.5 34.5h-188q-75 0 -112 -32t-37 -102v-108z" />
    <glyph glyph-name="idieresis" unicode="&#xef;" horiz-adv-x="738" 
d="M58 494h622v-494h-72v434h-478v-434h-72v494z" />
    <glyph glyph-name="idieresis" unicode="&#x43f;" horiz-adv-x="738" 
d="M58 494h622v-494h-72v434h-478v-434h-72v494z" />
    <glyph glyph-name="eth" unicode="&#xf0;" 
d="M52 494h72v-53q15 22 52.5 37.5t85.5 15.5h200q111 0 164 -57q46 -50 46 -137v-108q0 -89 -49 -138q-54 -54 -161 -54h-194q-51 0 -90 15t-54 38v-255h-72v696zM124 300v-108q0 -60 35 -94q39 -38 116 -38h161q82 0 123 31t41 101v108q0 68 -42 101t-122 33h-160
q-77 0 -114.5 -36.5t-37.5 -97.5z" />
    <glyph glyph-name="eth" unicode="&#x440;" 
d="M52 494h72v-53q15 22 52.5 37.5t85.5 15.5h200q111 0 164 -57q46 -50 46 -137v-108q0 -89 -49 -138q-54 -54 -161 -54h-194q-51 0 -90 15t-54 38v-255h-72v696zM124 300v-108q0 -60 35 -94q39 -38 116 -38h161q82 0 123 31t41 101v108q0 68 -42 101t-122 33h-160
q-77 0 -114.5 -36.5t-37.5 -97.5z" />
    <glyph glyph-name="ntilde" unicode="&#xf1;" 
d="M600 174h72q0 -60 -30 -102q-52 -72 -178 -72h-222q-101 0 -150.5 47.5t-49.5 134.5v124q0 85 50 135q54 55 156 55h216q124 0 176 -72q32 -44 32 -102h-72q0 55 -36.5 84.5t-99.5 29.5h-216q-64 0 -99 -33t-35 -97v-124q0 -58 37 -90t93 -32h219q81 0 115 43
q22 28 22 71z" />
    <glyph glyph-name="ntilde" unicode="&#x441;" 
d="M600 174h72q0 -60 -30 -102q-52 -72 -178 -72h-222q-101 0 -150.5 47.5t-49.5 134.5v124q0 85 50 135q54 55 156 55h216q124 0 176 -72q32 -44 32 -102h-72q0 55 -36.5 84.5t-99.5 29.5h-216q-64 0 -99 -33t-35 -97v-124q0 -58 37 -90t93 -32h219q81 0 115 43
q22 28 22 71z" />
    <glyph glyph-name="ograve" unicode="&#xf2;" horiz-adv-x="668" 
d="M367 0h-72v434h-270v60h612v-60h-270v-434z" />
    <glyph glyph-name="ograve" unicode="&#x442;" horiz-adv-x="668" 
d="M367 0h-72v434h-270v60h612v-60h-270v-434z" />
    <glyph glyph-name="oacute" unicode="&#xf3;" horiz-adv-x="585" 
d="M2 494h75l230 -424h14l182 424h75l-248 -559q-36 -82 -72 -111q-45 -36 -132 -36h-24v60h42q49 0 79 30t68 122h-18z" />
    <glyph glyph-name="oacute" unicode="&#x443;" horiz-adv-x="585" 
d="M2 494h75l230 -424h14l182 424h75l-248 -559q-36 -82 -72 -111q-45 -36 -132 -36h-24v60h42q49 0 79 30t68 122h-18z" />
    <glyph glyph-name="ocircumflex" unicode="&#xf4;" horiz-adv-x="1070" 
d="M499 -201v254q-15 -22 -54.5 -37.5t-89.5 -15.5h-89q-107 0 -159.5 51.5t-52.5 139.5v109q0 87 46 136q54 58 166 58h95q65 0 108 -27q14 -9 30 -27v250h72v-249q15 22 52.5 37.5t85.5 15.5h95q111 0 165 -58q47 -50 47 -136v-109q0 -88 -53 -139.5t-160 -51.5h-88
q-51 0 -90 15t-54 38v-254h-72zM723 434q-67 0 -109.5 -38t-42.5 -95v-108q0 -59 36 -94q40 -39 117 -39h56q82 0 123 31t41 101v108q0 68 -42 101t-122 33h-57zM499 301q0 60 -36 95q-39 38 -116 38h-57q-81 0 -122.5 -32.5t-41.5 -100.5v-108q0 -70 42 -101.5t125 -31.5
h51q76 0 115.5 37t39.5 95v109z" />
    <glyph glyph-name="ocircumflex" unicode="&#x444;" horiz-adv-x="1070" 
d="M499 -201v254q-15 -22 -54.5 -37.5t-89.5 -15.5h-89q-107 0 -159.5 51.5t-52.5 139.5v109q0 87 46 136q54 58 166 58h95q65 0 108 -27q14 -9 30 -27v250h72v-249q15 22 52.5 37.5t85.5 15.5h95q111 0 165 -58q47 -50 47 -136v-109q0 -88 -53 -139.5t-160 -51.5h-88
q-51 0 -90 15t-54 38v-254h-72zM723 434q-67 0 -109.5 -38t-42.5 -95v-108q0 -59 36 -94q40 -39 117 -39h56q82 0 123 31t41 101v108q0 68 -42 101t-122 33h-57zM499 301q0 60 -36 95q-39 38 -116 38h-57q-81 0 -122.5 -32.5t-41.5 -100.5v-108q0 -70 42 -101.5t125 -31.5
h51q76 0 115.5 37t39.5 95v109z" />
    <glyph glyph-name="otilde" unicode="&#xf5;" horiz-adv-x="637" 
d="M44 494h88l186 -182l182 182h88l-228 -226l268 -268h-90l-222 222l-224 -222h-86l266 268z" />
    <glyph glyph-name="otilde" unicode="&#x445;" horiz-adv-x="637" 
d="M44 494h88l186 -182l182 182h88l-228 -226l268 -268h-90l-222 222l-224 -222h-86l266 268z" />
    <glyph glyph-name="odieresis" unicode="&#xf6;" horiz-adv-x="766" 
d="M130 60h478v434h72v-434h58v-248h-68v188h-612v494h72v-434z" />
    <glyph glyph-name="odieresis" unicode="&#x446;" horiz-adv-x="766" 
d="M130 60h478v434h72v-434h58v-248h-68v188h-612v494h72v-434z" />
    <glyph glyph-name="divide" unicode="&#xf7;" horiz-adv-x="684" 
d="M46 494h72v-111q0 -128 144 -128h158q60 0 100 30q44 33 44 92v117h72v-494h-72v255q-8 -17 -44 -36q-46 -24 -100 -24h-158q-111 0 -163.5 49.5t-52.5 144.5v105z" />
    <glyph glyph-name="divide" unicode="&#x447;" horiz-adv-x="684" 
d="M46 494h72v-111q0 -128 144 -128h158q60 0 100 30q44 33 44 92v117h72v-494h-72v255q-8 -17 -44 -36q-46 -24 -100 -24h-158q-111 0 -163.5 49.5t-52.5 144.5v105z" />
    <glyph glyph-name="oslash" unicode="&#xf8;" horiz-adv-x="1088" 
d="M120 494v-434h385v434h72v-434h385v434h72v-494h-986v494h72z" />
    <glyph glyph-name="oslash" unicode="&#x448;" horiz-adv-x="1088" 
d="M120 494v-434h385v434h72v-434h385v434h72v-494h-986v494h72z" />
    <glyph glyph-name="ugrave" unicode="&#xf9;" horiz-adv-x="1108" 
d="M120 494v-434h385v434h72v-434h385v434h72v-434h57v-248h-68v188h-975v494h72z" />
    <glyph glyph-name="ugrave" unicode="&#x449;" horiz-adv-x="1108" 
d="M120 494v-434h385v434h72v-434h385v434h72v-434h57v-248h-68v188h-975v494h72z" />
    <glyph glyph-name="uacute" unicode="&#xfa;" horiz-adv-x="798" 
d="M11 494h214v-192h384q78 0 116 -31t38 -85v-60q0 -63 -42.5 -94.5t-123.5 -31.5h-444v434h-142v60zM225 242v-182h357q62 0 85.5 19t23.5 55v36q0 37 -20 53q-24 19 -88 19h-358z" />
    <glyph glyph-name="uacute" unicode="&#x44a;" horiz-adv-x="798" 
d="M11 494h214v-192h384q78 0 116 -31t38 -85v-60q0 -63 -42.5 -94.5t-123.5 -31.5h-444v434h-142v60zM225 242v-182h357q62 0 85.5 19t23.5 55v36q0 37 -20 53q-24 19 -88 19h-358z" />
    <glyph glyph-name="ucircumflex" unicode="&#xfb;" horiz-adv-x="907" 
d="M127 494v-192h384q78 0 116 -31t38 -85v-60q0 -63 -42.5 -94.5t-123.5 -31.5h-444v494h72zM127 242v-182h357q62 0 85.5 19t23.5 55v36q0 37 -20 53q-24 19 -88 19h-358zM847 494v-494h-72v494h72z" />
    <glyph glyph-name="ucircumflex" unicode="&#x44b;" horiz-adv-x="907" 
d="M127 494v-192h384q78 0 116 -31t38 -85v-60q0 -63 -42.5 -94.5t-123.5 -31.5h-444v494h72zM127 242v-182h357q62 0 85.5 19t23.5 55v36q0 37 -20 53q-24 19 -88 19h-358zM847 494v-494h-72v494h72z" />
    <glyph glyph-name="udieresis" unicode="&#xfc;" horiz-adv-x="700" 
d="M127 494v-192h384q78 0 116 -31t38 -85v-60q0 -63 -42.5 -94.5t-123.5 -31.5h-444v494h72zM127 242v-182h357q62 0 85.5 19t23.5 55v36q0 37 -20 53q-24 19 -88 19h-358z" />
    <glyph glyph-name="udieresis" unicode="&#x44c;" horiz-adv-x="700" 
d="M127 494v-192h384q78 0 116 -31t38 -85v-60q0 -63 -42.5 -94.5t-123.5 -31.5h-444v494h72zM127 242v-182h357q62 0 85.5 19t23.5 55v36q0 37 -20 53q-24 19 -88 19h-358z" />
    <glyph glyph-name="yacute" unicode="&#xfd;" 
d="M178 290h422v16q0 65 -34.5 97.5t-99.5 32.5h-216q-82 0 -115 -45q-21 -28 -21 -69h-72q0 81 56 127.5t152 46.5h216q100 0 155 -55q51 -51 51 -135v-124q0 -87 -49.5 -134.5t-150.5 -47.5h-222q-98 0 -151 44q-57 47 -57 130h72q0 -42 22 -70q34 -44 115 -44h220
q54 0 91.5 32.5t37.5 89.5v48h-422v60z" />
    <glyph glyph-name="yacute" unicode="&#x44d;" 
d="M178 290h422v16q0 65 -34.5 97.5t-99.5 32.5h-216q-82 0 -115 -45q-21 -28 -21 -69h-72q0 81 56 127.5t152 46.5h216q100 0 155 -55q51 -51 51 -135v-124q0 -87 -49.5 -134.5t-150.5 -47.5h-222q-98 0 -151 44q-57 47 -57 130h72q0 -42 22 -70q34 -44 115 -44h220
q54 0 91.5 32.5t37.5 89.5v48h-422v60z" />
    <glyph glyph-name="thorn" unicode="&#xfe;" horiz-adv-x="900" 
d="M116 234v-234h-72v494h72v-200h113q0 91 49 143q55 59 166 59h198q115 0 169 -58q47 -50 47 -136v-108q0 -86 -48 -136q-55 -58 -168 -58h-198q-108 0 -161.5 49.5t-53.5 144.5v40h-113zM301 194q0 -134 148 -134h187q71 0 110.5 32t39.5 102v108q0 64 -39 99t-111 35
h-187q-76 0 -112 -31t-36 -103v-108z" />
    <glyph glyph-name="thorn" unicode="&#x44e;" horiz-adv-x="900" 
d="M116 234v-234h-72v494h72v-200h113q0 91 49 143q55 59 166 59h198q115 0 169 -58q47 -50 47 -136v-108q0 -86 -48 -136q-55 -58 -168 -58h-198q-108 0 -161.5 49.5t-53.5 144.5v40h-113zM301 194q0 -134 148 -134h187q71 0 110.5 32t39.5 102v108q0 64 -39 99t-111 35
h-187q-76 0 -112 -31t-36 -103v-108z" />
    <glyph glyph-name="ydieresis" unicode="&#xff;" horiz-adv-x="703" 
d="M560 192h-278l-200 -192h-102l218 192h-21q-78 0 -116 31t-38 85v60q0 63 42.5 94.5t123.5 31.5h443v-494h-72v192zM560 252v182h-356q-62 0 -85.5 -19t-23.5 -55v-36q0 -37 22 -54.5t86 -17.5h357z" />
    <glyph glyph-name="ydieresis" unicode="&#x44f;" horiz-adv-x="703" 
d="M560 192h-278l-200 -192h-102l218 192h-21q-78 0 -116 31t-38 85v60q0 63 42.5 94.5t123.5 31.5h443v-494h-72v192zM560 252v182h-356q-62 0 -85.5 -19t-23.5 -55v-36q0 -37 22 -54.5t86 -17.5h357z" />
    <glyph glyph-name="endash" unicode="&#x2013;" horiz-adv-x="576" 
d="M54 326h458v-66h-458v66z" />
    <glyph glyph-name="emdash" unicode="&#x2014;" horiz-adv-x="956" 
d="M94 326h762v-66h-762v66z" />
    <glyph glyph-name="quoteleft" unicode="&#x2018;" horiz-adv-x="186" 
d="M134 621v-78h-78v130q0 36 28 54h38q-13 -10 -20.5 -23t-7.5 -31v-52h40z" />
    <glyph glyph-name="quoteright" unicode="&#x2019;" horiz-adv-x="186" 
d="M56 616v78h78v-130q0 -36 -28 -54h-38q13 10 20.5 23t7.5 31v52h-40z" />
    <glyph glyph-name="quotesinglbase" unicode="&#x201a;" horiz-adv-x="186" 
d="M60 0v78h78v-130q0 -36 -28 -54h-38q13 10 20.5 23t7.5 31v52h-40z" />
    <glyph glyph-name="quotedblleft" unicode="&#x201c;" horiz-adv-x="348" 
d="M296 624v-78h-78v130q0 36 28 54h38q-13 -10 -20.5 -23t-7.5 -31v-52h40zM136 624v-78h-78v130q0 36 28 54h38q-13 -10 -20.5 -23t-7.5 -31v-52h40z" />
    <glyph glyph-name="quotedblright" unicode="&#x201d;" horiz-adv-x="358" 
d="M60 616v78h78v-130q0 -36 -28 -54h-38q13 10 20.5 23t7.5 31v52h-40zM220 616v78h78v-130q0 -36 -28 -54h-38q13 10 20.5 23t7.5 31v52h-40z" />
    <glyph glyph-name="quotedblbase" unicode="&#x201e;" horiz-adv-x="358" 
d="M60 0v78h78v-130q0 -36 -28 -54h-38q13 10 20.5 23t7.5 31v52h-40zM220 0v78h78v-130q0 -36 -28 -54h-38q13 10 20.5 23t7.5 31v52h-40z" />
    <glyph glyph-name="daggerdbl" unicode="&#x2021;" horiz-adv-x="792" 
d="M684 538q0 43 -28.5 66.5t-79.5 23.5h-308q-56 0 -87 -26t-31 -75q0 -36 19 -70q55 -98 61 -125h434v-72h-426q0 -48 -28 -100.5t-71 -87.5h603v-72h-698v72q53 32 90 91q34 55 34 97h-114v72h102q-7 32 -46 86q-32 45 -32 116q0 67 51.5 113.5t138.5 46.5h308
q83 0 127 -36q49 -40 49 -120h-68z" />
    <glyph glyph-name="bullet" unicode="&#x2022;" horiz-adv-x="478" 
d="M240 442q76 0 121 -50q41 -46 41 -110q0 -65 -41 -111q-45 -51 -121 -51q-80 0 -127 49q-43 45 -43 109q0 65 43 112q48 52 127 52z" />
    <glyph glyph-name="ellipsis" unicode="&#x2026;" horiz-adv-x="466" 
d="M60 0v78h78v-78h-78zM334 0v78h78v-78h-78zM197 0v78h78v-78h-78z" />
    <glyph glyph-name="perthousand" unicode="&#x2030;" horiz-adv-x="1640" 
d="M453 536q0 56 -20 76t-76 20h-148q-60 0 -80 -19t-20 -77v-116q0 -52 22 -74t78 -22h148q53 0 74.5 21.5t21.5 74.5v116zM515 414q0 -81 -35.5 -115.5t-116.5 -34.5h-162q-85 0 -119.5 34.5t-34.5 115.5v128q0 85 33.5 117.5t121.5 32.5h161q80 0 114 -31q38 -35 38 -119
v-128zM711 728l-205 -761h-59l205 761h59zM1049 272q0 56 -20 76t-76 20h-148q-60 0 -80 -19t-20 -77v-116q0 -52 22 -74t78 -22h148q53 0 74.5 21.5t21.5 74.5v116zM1111 150q0 -81 -35.5 -115.5t-116.5 -34.5h-162q-85 0 -119.5 34.5t-34.5 115.5v128q0 85 33.5 117.5
t121.5 32.5h161q80 0 114 -31q38 -35 38 -119v-128zM1551 272q0 56 -20 76t-76 20h-148q-60 0 -80 -19t-20 -77v-116q0 -52 22 -74t78 -22h148q53 0 74.5 21.5t21.5 74.5v116zM1613 150q0 -81 -35.5 -115.5t-116.5 -34.5h-162q-85 0 -119.5 34.5t-34.5 115.5v128
q0 85 33.5 117.5t121.5 32.5h161q80 0 114 -31q38 -35 38 -119v-128z" />
    <glyph glyph-name="guilsinglleft" unicode="&#x2039;" horiz-adv-x="341" 
d="M118 278l170 -168l-34 -34l-202 202l206 206l32 -34z" />
    <glyph glyph-name="guilsinglright" unicode="&#x203a;" horiz-adv-x="339" 
d="M223 278l-174 174l34 32l206 -206l-202 -200l-32 32z" />
    <glyph glyph-name="trademark" unicode="&#x2122;" horiz-adv-x="1167" 
d="M64 833h405v-43h-181v-331h-44v331h-180v43zM531 833h83l189 -320l189 320h84v-374h-44v331h-20l-192 -331h-38l-187 331h-20v-331h-44v374z" />
    </font>
</defs>
</svg>
